<?xml version="1.0" encoding="UTF-8"?>
<!DOCTYPE svg PUBLIC "-//W3C//DTD SVG 1.1//EN" "http://www.w3.org/Graphics/SVG/1.1/DTD/svg11.dtd">
<svg width="160mm" height="90mm" viewBox="0 0 16000 9000">
 <path fill="rgb(255,255,255)" stroke="none" d="M 8028,8925 L 28,8925 28,-74 16027,-74 16027,8925 8028,8925 Z"/>
 <path fill="none" stroke="rgb(179,179,179)" stroke-linejoin="round" d="M 8590,7117 L 1980,7117 1980,980 15200,980 15200,7117 8590,7117 Z"/>
 <path fill="none" stroke="rgb(179,179,179)" stroke-linejoin="round" d="M 15200,7116 L 1980,7116"/>
 <path fill="none" stroke="rgb(179,179,179)" stroke-linejoin="round" d="M 15200,6093 L 1980,6093"/>
 <path fill="none" stroke="rgb(179,179,179)" stroke-linejoin="round" d="M 15200,5070 L 1980,5070"/>
 <path fill="none" stroke="rgb(179,179,179)" stroke-linejoin="round" d="M 15200,4048 L 1980,4048"/>
 <path fill="none" stroke="rgb(179,179,179)" stroke-linejoin="round" d="M 15200,3025 L 1980,3025"/>
 <path fill="none" stroke="rgb(179,179,179)" stroke-linejoin="round" d="M 15200,2002 L 1980,2002"/>
 <path fill="none" stroke="rgb(179,179,179)" stroke-linejoin="round" d="M 15200,979 L 1980,979"/>
 <path fill="none" stroke="rgb(179,179,179)" stroke-linejoin="round" d="M 1980,7266 L 1980,7116"/>
 <path fill="none" stroke="rgb(179,179,179)" stroke-linejoin="round" d="M 1980,7266 L 1980,7116"/>
 <path fill="none" stroke="rgb(179,179,179)" stroke-linejoin="round" d="M 3632,7266 L 3632,7116"/>
 <path fill="none" stroke="rgb(179,179,179)" stroke-linejoin="round" d="M 3632,7266 L 3632,7116"/>
 <path fill="none" stroke="rgb(179,179,179)" stroke-linejoin="round" d="M 5285,7266 L 5285,7116"/>
 <path fill="none" stroke="rgb(179,179,179)" stroke-linejoin="round" d="M 5285,7266 L 5285,7116"/>
 <path fill="none" stroke="rgb(179,179,179)" stroke-linejoin="round" d="M 6937,7266 L 6937,7116"/>
 <path fill="none" stroke="rgb(179,179,179)" stroke-linejoin="round" d="M 6937,7266 L 6937,7116"/>
 <path fill="none" stroke="rgb(179,179,179)" stroke-linejoin="round" d="M 8589,7266 L 8589,7116"/>
 <path fill="none" stroke="rgb(179,179,179)" stroke-linejoin="round" d="M 8589,7266 L 8589,7116"/>
 <path fill="none" stroke="rgb(179,179,179)" stroke-linejoin="round" d="M 10242,7266 L 10242,7116"/>
 <path fill="none" stroke="rgb(179,179,179)" stroke-linejoin="round" d="M 10242,7266 L 10242,7116"/>
 <path fill="none" stroke="rgb(179,179,179)" stroke-linejoin="round" d="M 11894,7266 L 11894,7116"/>
 <path fill="none" stroke="rgb(179,179,179)" stroke-linejoin="round" d="M 11894,7266 L 11894,7116"/>
 <path fill="none" stroke="rgb(179,179,179)" stroke-linejoin="round" d="M 13547,7266 L 13547,7116"/>
 <path fill="none" stroke="rgb(179,179,179)" stroke-linejoin="round" d="M 13547,7266 L 13547,7116"/>
 <path fill="none" stroke="rgb(179,179,179)" stroke-linejoin="round" d="M 15200,7266 L 15200,7116"/>
 <path fill="none" stroke="rgb(179,179,179)" stroke-linejoin="round" d="M 15200,7266 L 15200,7116"/>
 <path fill="none" stroke="rgb(179,179,179)" stroke-linejoin="round" d="M 1980,7116 L 15200,7116"/>
 <path fill="none" stroke="rgb(179,179,179)" stroke-linejoin="round" d="M 1830,7116 L 1980,7116"/>
 <path fill="none" stroke="rgb(179,179,179)" stroke-linejoin="round" d="M 1830,7116 L 1980,7116"/>
 <path fill="none" stroke="rgb(179,179,179)" stroke-linejoin="round" d="M 1830,6093 L 1980,6093"/>
 <path fill="none" stroke="rgb(179,179,179)" stroke-linejoin="round" d="M 1830,6093 L 1980,6093"/>
 <path fill="none" stroke="rgb(179,179,179)" stroke-linejoin="round" d="M 1830,5070 L 1980,5070"/>
 <path fill="none" stroke="rgb(179,179,179)" stroke-linejoin="round" d="M 1830,5070 L 1980,5070"/>
 <path fill="none" stroke="rgb(179,179,179)" stroke-linejoin="round" d="M 1830,4048 L 1980,4048"/>
 <path fill="none" stroke="rgb(179,179,179)" stroke-linejoin="round" d="M 1830,4048 L 1980,4048"/>
 <path fill="none" stroke="rgb(179,179,179)" stroke-linejoin="round" d="M 1830,3025 L 1980,3025"/>
 <path fill="none" stroke="rgb(179,179,179)" stroke-linejoin="round" d="M 1830,3025 L 1980,3025"/>
 <path fill="none" stroke="rgb(179,179,179)" stroke-linejoin="round" d="M 1830,2002 L 1980,2002"/>
 <path fill="none" stroke="rgb(179,179,179)" stroke-linejoin="round" d="M 1830,2002 L 1980,2002"/>
 <path fill="none" stroke="rgb(179,179,179)" stroke-linejoin="round" d="M 1830,979 L 1980,979"/>
 <path fill="none" stroke="rgb(179,179,179)" stroke-linejoin="round" d="M 1830,979 L 1980,979"/>
 <path fill="none" stroke="rgb(179,179,179)" stroke-linejoin="round" d="M 1980,7116 L 1980,979"/>
 <path fill="rgb(0,69,134)" stroke="rgb(0,69,134)" stroke-linejoin="round" d="M 5285,2397 L 5174,2286 5160,2300 5271,2411 5160,2522 5174,2536 5285,2425 5396,2536 5410,2522 5299,2411 5410,2300 5396,2286 5285,2397 Z"/>
 <path fill="rgb(0,69,134)" stroke="rgb(0,69,134)" stroke-linejoin="round" d="M 6937,2601 L 6826,2490 6812,2504 6924,2615 6812,2726 6826,2740 6937,2629 7049,2740 7062,2726 6951,2615 7062,2504 7049,2490 6937,2601 Z"/>
 <path fill="rgb(0,69,134)" stroke="rgb(0,69,134)" stroke-linejoin="round" d="M 3632,3829 L 3521,3718 3507,3732 3618,3843 3507,3954 3521,3968 3632,3857 3743,3968 3757,3954 3646,3843 3757,3732 3743,3718 3632,3829 Z"/>
 <path fill="rgb(0,69,134)" stroke="rgb(0,69,134)" stroke-linejoin="round" d="M 8589,2397 L 8478,2286 8464,2300 8575,2411 8464,2522 8478,2536 8589,2425 8700,2536 8714,2522 8603,2411 8714,2300 8700,2286 8589,2397 Z"/>
 <path fill="rgb(0,69,134)" stroke="rgb(0,69,134)" stroke-linejoin="round" d="M 10242,2601 L 10130,2490 10117,2504 10228,2615 10117,2726 10130,2740 10242,2629 10353,2740 10367,2726 10255,2615 10367,2504 10353,2490 10242,2601 Z"/>
 <path fill="rgb(0,69,134)" stroke="rgb(0,69,134)" stroke-linejoin="round" d="M 10242,2192 L 10130,2081 10117,2095 10228,2206 10117,2317 10130,2331 10242,2220 10353,2331 10367,2317 10255,2206 10367,2095 10353,2081 10242,2192 Z"/>
 <path fill="rgb(0,69,134)" stroke="rgb(0,69,134)" stroke-linejoin="round" d="M 13547,4442 L 13436,4332 13422,4346 13533,4456 13422,4567 13436,4581 13547,4470 13658,4581 13672,4567 13561,4456 13672,4346 13658,4332 13547,4442 Z"/>
 <path fill="rgb(0,69,134)" stroke="rgb(0,69,134)" stroke-linejoin="round" d="M 11894,4238 L 11783,4127 11769,4141 11880,4252 11769,4363 11783,4377 11894,4266 12005,4377 12019,4363 11908,4252 12019,4141 12005,4127 11894,4238 Z"/>
 <path fill="rgb(0,69,134)" stroke="rgb(0,69,134)" stroke-linejoin="round" d="M 5285,3011 L 5174,2900 5160,2913 5271,3025 5160,3136 5174,3150 5285,3038 5396,3150 5410,3136 5299,3025 5410,2913 5396,2900 5285,3011 Z"/>
 <path fill="rgb(0,69,134)" stroke="rgb(0,69,134)" stroke-linejoin="round" d="M 10242,2601 L 10130,2490 10117,2504 10228,2615 10117,2726 10130,2740 10242,2629 10353,2740 10367,2726 10255,2615 10367,2504 10353,2490 10242,2601 Z"/>
 <path fill="rgb(0,69,134)" stroke="rgb(0,69,134)" stroke-linejoin="round" d="M 5285,2601 L 5174,2490 5160,2504 5271,2615 5160,2726 5174,2740 5285,2629 5396,2740 5410,2726 5299,2615 5410,2504 5396,2490 5285,2601 Z"/>
 <path fill="rgb(0,69,134)" stroke="rgb(0,69,134)" stroke-linejoin="round" d="M 6937,2397 L 6826,2286 6812,2300 6924,2411 6812,2522 6826,2536 6937,2425 7049,2536 7062,2522 6951,2411 7062,2300 7049,2286 6937,2397 Z"/>
 <path fill="rgb(0,69,134)" stroke="rgb(0,69,134)" stroke-linejoin="round" d="M 8589,2601 L 8478,2490 8464,2504 8575,2615 8464,2726 8478,2740 8589,2629 8700,2740 8714,2726 8603,2615 8714,2504 8700,2490 8589,2601 Z"/>
 <path fill="rgb(0,69,134)" stroke="rgb(0,69,134)" stroke-linejoin="round" d="M 8589,2397 L 8478,2286 8464,2300 8575,2411 8464,2522 8478,2536 8589,2425 8700,2536 8714,2522 8603,2411 8714,2300 8700,2286 8589,2397 Z"/>
 <path fill="rgb(0,69,134)" stroke="rgb(0,69,134)" stroke-linejoin="round" d="M 6937,2601 L 6826,2490 6812,2504 6924,2615 6812,2726 6826,2740 6937,2629 7049,2740 7062,2726 6951,2615 7062,2504 7049,2490 6937,2601 Z"/>
 <path fill="rgb(0,69,134)" stroke="rgb(0,69,134)" stroke-linejoin="round" d="M 10242,2397 L 10130,2286 10117,2300 10228,2411 10117,2522 10130,2536 10242,2425 10353,2536 10367,2522 10255,2411 10367,2300 10353,2286 10242,2397 Z"/>
 <text class="TextShape"><tspan class="TextParagraph" font-family="Arial" font-size="353px" font-weight="400"><tspan class="TextPosition" x="1887" y="7684"><tspan fill="rgb(0,0,0)" stroke="none">3</tspan></tspan></tspan></text>
 <text class="TextShape"><tspan class="TextParagraph" font-family="Arial" font-size="353px" font-weight="400"><tspan class="TextPosition" x="3539" y="7684"><tspan fill="rgb(0,0,0)" stroke="none">4</tspan></tspan></tspan></text>
 <text class="TextShape"><tspan class="TextParagraph" font-family="Arial" font-size="353px" font-weight="400"><tspan class="TextPosition" x="5192" y="7684"><tspan fill="rgb(0,0,0)" stroke="none">5</tspan></tspan></tspan></text>
 <text class="TextShape"><tspan class="TextParagraph" font-family="Arial" font-size="353px" font-weight="400"><tspan class="TextPosition" x="6844" y="7684"><tspan fill="rgb(0,0,0)" stroke="none">6</tspan></tspan></tspan></text>
 <text class="TextShape"><tspan class="TextParagraph" font-family="Arial" font-size="353px" font-weight="400"><tspan class="TextPosition" x="8497" y="7684"><tspan fill="rgb(0,0,0)" stroke="none">7</tspan></tspan></tspan></text>
 <text class="TextShape"><tspan class="TextParagraph" font-family="Arial" font-size="353px" font-weight="400"><tspan class="TextPosition" x="10150" y="7684"><tspan fill="rgb(0,0,0)" stroke="none">8</tspan></tspan></tspan></text>
 <text class="TextShape"><tspan class="TextParagraph" font-family="Arial" font-size="353px" font-weight="400"><tspan class="TextPosition" x="11802" y="7684"><tspan fill="rgb(0,0,0)" stroke="none">9</tspan></tspan></tspan></text>
 <text class="TextShape"><tspan class="TextParagraph" font-family="Arial" font-size="353px" font-weight="400"><tspan class="TextPosition" x="13363" y="7684"><tspan fill="rgb(0,0,0)" stroke="none">10</tspan></tspan></tspan></text>
 <text class="TextShape"><tspan class="TextParagraph" font-family="Arial" font-size="353px" font-weight="400"><tspan class="TextPosition" x="15016" y="7684"><tspan fill="rgb(0,0,0)" stroke="none">11</tspan></tspan></tspan></text>
 <text class="TextShape"><tspan class="TextParagraph" font-family="Arial" font-size="353px" font-weight="400"><tspan class="TextPosition" x="1545" y="7237"><tspan fill="rgb(0,0,0)" stroke="none">0</tspan></tspan></tspan></text>
 <text class="TextShape"><tspan class="TextParagraph" font-family="Arial" font-size="353px" font-weight="400"><tspan class="TextPosition" x="1545" y="6214"><tspan fill="rgb(0,0,0)" stroke="none">5</tspan></tspan></tspan></text>
 <text class="TextShape"><tspan class="TextParagraph" font-family="Arial" font-size="353px" font-weight="400"><tspan class="TextPosition" x="1360" y="5191"><tspan fill="rgb(0,0,0)" stroke="none">10</tspan></tspan></tspan></text>
 <text class="TextShape"><tspan class="TextParagraph" font-family="Arial" font-size="353px" font-weight="400"><tspan class="TextPosition" x="1360" y="4168"><tspan fill="rgb(0,0,0)" stroke="none">15</tspan></tspan></tspan></text>
 <text class="TextShape"><tspan class="TextParagraph" font-family="Arial" font-size="353px" font-weight="400"><tspan class="TextPosition" x="1360" y="3145"><tspan fill="rgb(0,0,0)" stroke="none">20</tspan></tspan></tspan></text>
 <text class="TextShape"><tspan class="TextParagraph" font-family="Arial" font-size="353px" font-weight="400"><tspan class="TextPosition" x="1360" y="2122"><tspan fill="rgb(0,0,0)" stroke="none">25</tspan></tspan></tspan></text>
 <text class="TextShape"><tspan class="TextParagraph" font-family="Arial" font-size="353px" font-weight="400"><tspan class="TextPosition" x="1360" y="1099"><tspan fill="rgb(0,0,0)" stroke="none">30</tspan></tspan></tspan></text>
 <text class="TextShape"><tspan class="TextParagraph" font-family="Arial" font-size="318px" font-weight="400"><tspan class="TextPosition" x="7976" y="8331"><tspan fill="rgb(0,0,0)" stroke="none">Level</tspan></tspan></tspan></text>
 <text class="TextShape"><tspan class="TextParagraph" font-family="Arial" font-size="318px" font-weight="400"><tspan class="TextPosition" x="865" y="5608" transform="translate(865,5608) rotate(-90) translate(-865,-5608)"><tspan fill="rgb(0,0,0)" stroke="none">Correct URLs after</tspan></tspan></tspan></text>
</svg>