<?xml version="1.0" encoding="UTF-8"?>
<!DOCTYPE svg PUBLIC "-//W3C//DTD SVG 1.1//EN" "http://www.w3.org/Graphics/SVG/1.1/DTD/svg11.dtd">
<svg width="160mm" height="90mm" viewBox="0 0 16000 9000">
 <path fill="rgb(255,255,255)" stroke="none" d="M 8077,9048 L 77,9048 77,49 16076,49 16076,9048 8077,9048 Z"/>
 <path fill="none" stroke="rgb(179,179,179)" stroke-linejoin="round" d="M 8640,7240 L 1844,7240 1844,1103 15436,1103 15436,7240 8640,7240 Z"/>
 <path fill="none" stroke="rgb(179,179,179)" stroke-linejoin="round" d="M 15436,7239 L 1844,7239"/>
 <path fill="none" stroke="rgb(179,179,179)" stroke-linejoin="round" d="M 15436,6471 L 1844,6471"/>
 <path fill="none" stroke="rgb(179,179,179)" stroke-linejoin="round" d="M 15436,5704 L 1844,5704"/>
 <path fill="none" stroke="rgb(179,179,179)" stroke-linejoin="round" d="M 15436,4937 L 1844,4937"/>
 <path fill="none" stroke="rgb(179,179,179)" stroke-linejoin="round" d="M 15436,4171 L 1844,4171"/>
 <path fill="none" stroke="rgb(179,179,179)" stroke-linejoin="round" d="M 15436,3403 L 1844,3403"/>
 <path fill="none" stroke="rgb(179,179,179)" stroke-linejoin="round" d="M 15436,2636 L 1844,2636"/>
 <path fill="none" stroke="rgb(179,179,179)" stroke-linejoin="round" d="M 15436,1869 L 1844,1869"/>
 <path fill="none" stroke="rgb(179,179,179)" stroke-linejoin="round" d="M 15436,1102 L 1844,1102"/>
 <path fill="none" stroke="rgb(179,179,179)" stroke-linejoin="round" d="M 1844,7389 L 1844,7239"/>
 <path fill="none" stroke="rgb(179,179,179)" stroke-linejoin="round" d="M 1844,7389 L 1844,7239"/>
 <path fill="none" stroke="rgb(179,179,179)" stroke-linejoin="round" d="M 2387,7389 L 2387,7239"/>
 <path fill="none" stroke="rgb(179,179,179)" stroke-linejoin="round" d="M 2387,7389 L 2387,7239"/>
 <path fill="none" stroke="rgb(179,179,179)" stroke-linejoin="round" d="M 2931,7389 L 2931,7239"/>
 <path fill="none" stroke="rgb(179,179,179)" stroke-linejoin="round" d="M 2931,7389 L 2931,7239"/>
 <path fill="none" stroke="rgb(179,179,179)" stroke-linejoin="round" d="M 3475,7389 L 3475,7239"/>
 <path fill="none" stroke="rgb(179,179,179)" stroke-linejoin="round" d="M 3475,7389 L 3475,7239"/>
 <path fill="none" stroke="rgb(179,179,179)" stroke-linejoin="round" d="M 4018,7389 L 4018,7239"/>
 <path fill="none" stroke="rgb(179,179,179)" stroke-linejoin="round" d="M 4018,7389 L 4018,7239"/>
 <path fill="none" stroke="rgb(179,179,179)" stroke-linejoin="round" d="M 4562,7389 L 4562,7239"/>
 <path fill="none" stroke="rgb(179,179,179)" stroke-linejoin="round" d="M 4562,7389 L 4562,7239"/>
 <path fill="none" stroke="rgb(179,179,179)" stroke-linejoin="round" d="M 5106,7389 L 5106,7239"/>
 <path fill="none" stroke="rgb(179,179,179)" stroke-linejoin="round" d="M 5106,7389 L 5106,7239"/>
 <path fill="none" stroke="rgb(179,179,179)" stroke-linejoin="round" d="M 5650,7389 L 5650,7239"/>
 <path fill="none" stroke="rgb(179,179,179)" stroke-linejoin="round" d="M 5650,7389 L 5650,7239"/>
 <path fill="none" stroke="rgb(179,179,179)" stroke-linejoin="round" d="M 6193,7389 L 6193,7239"/>
 <path fill="none" stroke="rgb(179,179,179)" stroke-linejoin="round" d="M 6193,7389 L 6193,7239"/>
 <path fill="none" stroke="rgb(179,179,179)" stroke-linejoin="round" d="M 6737,7389 L 6737,7239"/>
 <path fill="none" stroke="rgb(179,179,179)" stroke-linejoin="round" d="M 6737,7389 L 6737,7239"/>
 <path fill="none" stroke="rgb(179,179,179)" stroke-linejoin="round" d="M 7281,7389 L 7281,7239"/>
 <path fill="none" stroke="rgb(179,179,179)" stroke-linejoin="round" d="M 7281,7389 L 7281,7239"/>
 <path fill="none" stroke="rgb(179,179,179)" stroke-linejoin="round" d="M 7824,7389 L 7824,7239"/>
 <path fill="none" stroke="rgb(179,179,179)" stroke-linejoin="round" d="M 7824,7389 L 7824,7239"/>
 <path fill="none" stroke="rgb(179,179,179)" stroke-linejoin="round" d="M 8367,7389 L 8367,7239"/>
 <path fill="none" stroke="rgb(179,179,179)" stroke-linejoin="round" d="M 8367,7389 L 8367,7239"/>
 <path fill="none" stroke="rgb(179,179,179)" stroke-linejoin="round" d="M 8911,7389 L 8911,7239"/>
 <path fill="none" stroke="rgb(179,179,179)" stroke-linejoin="round" d="M 8911,7389 L 8911,7239"/>
 <path fill="none" stroke="rgb(179,179,179)" stroke-linejoin="round" d="M 9455,7389 L 9455,7239"/>
 <path fill="none" stroke="rgb(179,179,179)" stroke-linejoin="round" d="M 9455,7389 L 9455,7239"/>
 <path fill="none" stroke="rgb(179,179,179)" stroke-linejoin="round" d="M 9998,7389 L 9998,7239"/>
 <path fill="none" stroke="rgb(179,179,179)" stroke-linejoin="round" d="M 9998,7389 L 9998,7239"/>
 <path fill="none" stroke="rgb(179,179,179)" stroke-linejoin="round" d="M 10542,7389 L 10542,7239"/>
 <path fill="none" stroke="rgb(179,179,179)" stroke-linejoin="round" d="M 10542,7389 L 10542,7239"/>
 <path fill="none" stroke="rgb(179,179,179)" stroke-linejoin="round" d="M 11086,7389 L 11086,7239"/>
 <path fill="none" stroke="rgb(179,179,179)" stroke-linejoin="round" d="M 11086,7389 L 11086,7239"/>
 <path fill="none" stroke="rgb(179,179,179)" stroke-linejoin="round" d="M 11629,7389 L 11629,7239"/>
 <path fill="none" stroke="rgb(179,179,179)" stroke-linejoin="round" d="M 11629,7389 L 11629,7239"/>
 <path fill="none" stroke="rgb(179,179,179)" stroke-linejoin="round" d="M 12173,7389 L 12173,7239"/>
 <path fill="none" stroke="rgb(179,179,179)" stroke-linejoin="round" d="M 12173,7389 L 12173,7239"/>
 <path fill="none" stroke="rgb(179,179,179)" stroke-linejoin="round" d="M 12717,7389 L 12717,7239"/>
 <path fill="none" stroke="rgb(179,179,179)" stroke-linejoin="round" d="M 12717,7389 L 12717,7239"/>
 <path fill="none" stroke="rgb(179,179,179)" stroke-linejoin="round" d="M 13261,7389 L 13261,7239"/>
 <path fill="none" stroke="rgb(179,179,179)" stroke-linejoin="round" d="M 13261,7389 L 13261,7239"/>
 <path fill="none" stroke="rgb(179,179,179)" stroke-linejoin="round" d="M 13804,7389 L 13804,7239"/>
 <path fill="none" stroke="rgb(179,179,179)" stroke-linejoin="round" d="M 13804,7389 L 13804,7239"/>
 <path fill="none" stroke="rgb(179,179,179)" stroke-linejoin="round" d="M 14348,7389 L 14348,7239"/>
 <path fill="none" stroke="rgb(179,179,179)" stroke-linejoin="round" d="M 14348,7389 L 14348,7239"/>
 <path fill="none" stroke="rgb(179,179,179)" stroke-linejoin="round" d="M 14892,7389 L 14892,7239"/>
 <path fill="none" stroke="rgb(179,179,179)" stroke-linejoin="round" d="M 14892,7389 L 14892,7239"/>
 <path fill="none" stroke="rgb(179,179,179)" stroke-linejoin="round" d="M 15436,7389 L 15436,7239"/>
 <path fill="none" stroke="rgb(179,179,179)" stroke-linejoin="round" d="M 15436,7389 L 15436,7239"/>
 <path fill="none" stroke="rgb(179,179,179)" stroke-linejoin="round" d="M 1844,7239 L 15436,7239"/>
 <path fill="none" stroke="rgb(179,179,179)" stroke-linejoin="round" d="M 1694,7239 L 1844,7239"/>
 <path fill="none" stroke="rgb(179,179,179)" stroke-linejoin="round" d="M 1694,7239 L 1844,7239"/>
 <path fill="none" stroke="rgb(179,179,179)" stroke-linejoin="round" d="M 1694,6471 L 1844,6471"/>
 <path fill="none" stroke="rgb(179,179,179)" stroke-linejoin="round" d="M 1694,6471 L 1844,6471"/>
 <path fill="none" stroke="rgb(179,179,179)" stroke-linejoin="round" d="M 1694,5704 L 1844,5704"/>
 <path fill="none" stroke="rgb(179,179,179)" stroke-linejoin="round" d="M 1694,5704 L 1844,5704"/>
 <path fill="none" stroke="rgb(179,179,179)" stroke-linejoin="round" d="M 1694,4937 L 1844,4937"/>
 <path fill="none" stroke="rgb(179,179,179)" stroke-linejoin="round" d="M 1694,4937 L 1844,4937"/>
 <path fill="none" stroke="rgb(179,179,179)" stroke-linejoin="round" d="M 1694,4171 L 1844,4171"/>
 <path fill="none" stroke="rgb(179,179,179)" stroke-linejoin="round" d="M 1694,4171 L 1844,4171"/>
 <path fill="none" stroke="rgb(179,179,179)" stroke-linejoin="round" d="M 1694,3403 L 1844,3403"/>
 <path fill="none" stroke="rgb(179,179,179)" stroke-linejoin="round" d="M 1694,3403 L 1844,3403"/>
 <path fill="none" stroke="rgb(179,179,179)" stroke-linejoin="round" d="M 1694,2636 L 1844,2636"/>
 <path fill="none" stroke="rgb(179,179,179)" stroke-linejoin="round" d="M 1694,2636 L 1844,2636"/>
 <path fill="none" stroke="rgb(179,179,179)" stroke-linejoin="round" d="M 1694,1869 L 1844,1869"/>
 <path fill="none" stroke="rgb(179,179,179)" stroke-linejoin="round" d="M 1694,1869 L 1844,1869"/>
 <path fill="none" stroke="rgb(179,179,179)" stroke-linejoin="round" d="M 1694,1102 L 1844,1102"/>
 <path fill="none" stroke="rgb(179,179,179)" stroke-linejoin="round" d="M 1694,1102 L 1844,1102"/>
 <path fill="none" stroke="rgb(179,179,179)" stroke-linejoin="round" d="M 1844,7239 L 1844,1102"/>
 <path fill="rgb(255,66,14)" stroke="none" d="M 15028,7239 L 15300,7239 15300,6471 15028,6471 15028,7239 Z"/>
 <path fill="rgb(255,66,14)" stroke="none" d="M 14484,7239 L 14756,7239 14756,3403 14484,3403 14484,7239 Z"/>
 <path fill="rgb(255,66,14)" stroke="none" d="M 13940,7239 L 14212,7239 14212,1869 13940,1869 13940,7239 Z"/>
 <path fill="rgb(255,66,14)" stroke="none" d="M 12853,7239 L 13125,7239 13125,6471 12853,6471 12853,7239 Z"/>
 <path fill="rgb(255,66,14)" stroke="none" d="M 10678,7239 L 10950,7239 10950,6471 10678,6471 10678,7239 Z"/>
 <path fill="rgb(255,66,14)" stroke="none" d="M 9591,7239 L 9862,7239 9862,6471 9591,6471 9591,7239 Z"/>
 <text class="TextShape"><tspan class="TextParagraph" font-family="Arial" font-size="353px" font-weight="400"><tspan class="TextPosition" x="2022" y="7807"><tspan fill="rgb(0,0,0)" stroke="none">0</tspan></tspan></tspan></text>
 <text class="TextShape"><tspan class="TextParagraph" font-family="Arial" font-size="353px" font-weight="400"><tspan class="TextPosition" x="2566" y="7807"><tspan fill="rgb(0,0,0)" stroke="none">1</tspan></tspan></tspan></text>
 <text class="TextShape"><tspan class="TextParagraph" font-family="Arial" font-size="353px" font-weight="400"><tspan class="TextPosition" x="3110" y="7807"><tspan fill="rgb(0,0,0)" stroke="none">2</tspan></tspan></tspan></text>
 <text class="TextShape"><tspan class="TextParagraph" font-family="Arial" font-size="353px" font-weight="400"><tspan class="TextPosition" x="3654" y="7807"><tspan fill="rgb(0,0,0)" stroke="none">3</tspan></tspan></tspan></text>
 <text class="TextShape"><tspan class="TextParagraph" font-family="Arial" font-size="353px" font-weight="400"><tspan class="TextPosition" x="4197" y="7807"><tspan fill="rgb(0,0,0)" stroke="none">4</tspan></tspan></tspan></text>
 <text class="TextShape"><tspan class="TextParagraph" font-family="Arial" font-size="353px" font-weight="400"><tspan class="TextPosition" x="4741" y="7807"><tspan fill="rgb(0,0,0)" stroke="none">5</tspan></tspan></tspan></text>
 <text class="TextShape"><tspan class="TextParagraph" font-family="Arial" font-size="353px" font-weight="400"><tspan class="TextPosition" x="5285" y="7807"><tspan fill="rgb(0,0,0)" stroke="none">6</tspan></tspan></tspan></text>
 <text class="TextShape"><tspan class="TextParagraph" font-family="Arial" font-size="353px" font-weight="400"><tspan class="TextPosition" x="5828" y="7807"><tspan fill="rgb(0,0,0)" stroke="none">7</tspan></tspan></tspan></text>
 <text class="TextShape"><tspan class="TextParagraph" font-family="Arial" font-size="353px" font-weight="400"><tspan class="TextPosition" x="6372" y="7807"><tspan fill="rgb(0,0,0)" stroke="none">8</tspan></tspan></tspan></text>
 <text class="TextShape"><tspan class="TextParagraph" font-family="Arial" font-size="353px" font-weight="400"><tspan class="TextPosition" x="6916" y="7807"><tspan fill="rgb(0,0,0)" stroke="none">9</tspan></tspan></tspan></text>
 <text class="TextShape"><tspan class="TextParagraph" font-family="Arial" font-size="353px" font-weight="400"><tspan class="TextPosition" x="7368" y="7807"><tspan fill="rgb(0,0,0)" stroke="none">10</tspan></tspan></tspan></text>
 <text class="TextShape"><tspan class="TextParagraph" font-family="Arial" font-size="353px" font-weight="400"><tspan class="TextPosition" x="7911" y="7807"><tspan fill="rgb(0,0,0)" stroke="none">11</tspan></tspan></tspan></text>
 <text class="TextShape"><tspan class="TextParagraph" font-family="Arial" font-size="353px" font-weight="400"><tspan class="TextPosition" x="8455" y="7807"><tspan fill="rgb(0,0,0)" stroke="none">12</tspan></tspan></tspan></text>
 <text class="TextShape"><tspan class="TextParagraph" font-family="Arial" font-size="353px" font-weight="400"><tspan class="TextPosition" x="8999" y="7807"><tspan fill="rgb(0,0,0)" stroke="none">13</tspan></tspan></tspan></text>
 <text class="TextShape"><tspan class="TextParagraph" font-family="Arial" font-size="353px" font-weight="400"><tspan class="TextPosition" x="9542" y="7807"><tspan fill="rgb(0,0,0)" stroke="none">14</tspan></tspan></tspan></text>
 <text class="TextShape"><tspan class="TextParagraph" font-family="Arial" font-size="353px" font-weight="400"><tspan class="TextPosition" x="10086" y="7807"><tspan fill="rgb(0,0,0)" stroke="none">15</tspan></tspan></tspan></text>
 <text class="TextShape"><tspan class="TextParagraph" font-family="Arial" font-size="353px" font-weight="400"><tspan class="TextPosition" x="10630" y="7807"><tspan fill="rgb(0,0,0)" stroke="none">16</tspan></tspan></tspan></text>
 <text class="TextShape"><tspan class="TextParagraph" font-family="Arial" font-size="353px" font-weight="400"><tspan class="TextPosition" x="11174" y="7807"><tspan fill="rgb(0,0,0)" stroke="none">17</tspan></tspan></tspan></text>
 <text class="TextShape"><tspan class="TextParagraph" font-family="Arial" font-size="353px" font-weight="400"><tspan class="TextPosition" x="11717" y="7807"><tspan fill="rgb(0,0,0)" stroke="none">18</tspan></tspan></tspan></text>
 <text class="TextShape"><tspan class="TextParagraph" font-family="Arial" font-size="353px" font-weight="400"><tspan class="TextPosition" x="12261" y="7807"><tspan fill="rgb(0,0,0)" stroke="none">19</tspan></tspan></tspan></text>
 <text class="TextShape"><tspan class="TextParagraph" font-family="Arial" font-size="353px" font-weight="400"><tspan class="TextPosition" x="12805" y="7807"><tspan fill="rgb(0,0,0)" stroke="none">20</tspan></tspan></tspan></text>
 <text class="TextShape"><tspan class="TextParagraph" font-family="Arial" font-size="353px" font-weight="400"><tspan class="TextPosition" x="13348" y="7807"><tspan fill="rgb(0,0,0)" stroke="none">21</tspan></tspan></tspan></text>
 <text class="TextShape"><tspan class="TextParagraph" font-family="Arial" font-size="353px" font-weight="400"><tspan class="TextPosition" x="13892" y="7807"><tspan fill="rgb(0,0,0)" stroke="none">22</tspan></tspan></tspan></text>
 <text class="TextShape"><tspan class="TextParagraph" font-family="Arial" font-size="353px" font-weight="400"><tspan class="TextPosition" x="14436" y="7807"><tspan fill="rgb(0,0,0)" stroke="none">23</tspan></tspan></tspan></text>
 <text class="TextShape"><tspan class="TextParagraph" font-family="Arial" font-size="353px" font-weight="400"><tspan class="TextPosition" x="14980" y="7807"><tspan fill="rgb(0,0,0)" stroke="none">24</tspan></tspan></tspan></text>
 <text class="TextShape"><tspan class="TextParagraph" font-family="Arial" font-size="353px" font-weight="400"><tspan class="TextPosition" x="1409" y="7360"><tspan fill="rgb(0,0,0)" stroke="none">0</tspan></tspan></tspan></text>
 <text class="TextShape"><tspan class="TextParagraph" font-family="Arial" font-size="353px" font-weight="400"><tspan class="TextPosition" x="1409" y="6592"><tspan fill="rgb(0,0,0)" stroke="none">1</tspan></tspan></tspan></text>
 <text class="TextShape"><tspan class="TextParagraph" font-family="Arial" font-size="353px" font-weight="400"><tspan class="TextPosition" x="1409" y="5825"><tspan fill="rgb(0,0,0)" stroke="none">2</tspan></tspan></tspan></text>
 <text class="TextShape"><tspan class="TextParagraph" font-family="Arial" font-size="353px" font-weight="400"><tspan class="TextPosition" x="1409" y="5058"><tspan fill="rgb(0,0,0)" stroke="none">3</tspan></tspan></tspan></text>
 <text class="TextShape"><tspan class="TextParagraph" font-family="Arial" font-size="353px" font-weight="400"><tspan class="TextPosition" x="1409" y="4291"><tspan fill="rgb(0,0,0)" stroke="none">4</tspan></tspan></tspan></text>
 <text class="TextShape"><tspan class="TextParagraph" font-family="Arial" font-size="353px" font-weight="400"><tspan class="TextPosition" x="1409" y="3523"><tspan fill="rgb(0,0,0)" stroke="none">5</tspan></tspan></tspan></text>
 <text class="TextShape"><tspan class="TextParagraph" font-family="Arial" font-size="353px" font-weight="400"><tspan class="TextPosition" x="1409" y="2756"><tspan fill="rgb(0,0,0)" stroke="none">6</tspan></tspan></tspan></text>
 <text class="TextShape"><tspan class="TextParagraph" font-family="Arial" font-size="353px" font-weight="400"><tspan class="TextPosition" x="1409" y="1989"><tspan fill="rgb(0,0,0)" stroke="none">7</tspan></tspan></tspan></text>
 <text class="TextShape"><tspan class="TextParagraph" font-family="Arial" font-size="353px" font-weight="400"><tspan class="TextPosition" x="1409" y="1222"><tspan fill="rgb(0,0,0)" stroke="none">8</tspan></tspan></tspan></text>
 <text class="TextShape"><tspan class="TextParagraph" font-family="Arial" font-size="318px" font-weight="400"><tspan class="TextPosition" x="7152" y="8454"><tspan fill="rgb(0,0,0)" stroke="none"># correct answers</tspan></tspan></tspan></text>
 <text class="TextShape"><tspan class="TextParagraph" font-family="Arial" font-size="318px" font-weight="400"><tspan class="TextPosition" x="914" y="4924" transform="translate(914,4924) rotate(-90) translate(-914,-4924)"><tspan fill="rgb(0,0,0)" stroke="none"># users</tspan></tspan></tspan></text>
 <path fill="rgb(255,66,14)" stroke="none" d="M 9047,7239 L 9319,7239 9319,6471 9047,6471 9047,7239 Z"/>
</svg>