<?xml version="1.0" encoding="UTF-8"?>
<!DOCTYPE svg PUBLIC "-//W3C//DTD SVG 1.1//EN" "http://www.w3.org/Graphics/SVG/1.1/DTD/svg11.dtd">
<svg width="160mm" height="90mm" viewBox="0 0 16000 9000">
 <path fill="rgb(255,255,255)" stroke="none" d="M 8101,9048 L 101,9048 101,49 16100,49 16100,9048 8101,9048 Z"/>
 <path fill="none" stroke="rgb(179,179,179)" stroke-linejoin="round" d="M 8664,7240 L 1868,7240 1868,1103 15460,1103 15460,7240 8664,7240 Z"/>
 <path fill="none" stroke="rgb(179,179,179)" stroke-linejoin="round" d="M 15460,7239 L 1868,7239"/>
 <path fill="none" stroke="rgb(179,179,179)" stroke-linejoin="round" d="M 15460,6362 L 1868,6362"/>
 <path fill="none" stroke="rgb(179,179,179)" stroke-linejoin="round" d="M 15460,5485 L 1868,5485"/>
 <path fill="none" stroke="rgb(179,179,179)" stroke-linejoin="round" d="M 15460,4608 L 1868,4608"/>
 <path fill="none" stroke="rgb(179,179,179)" stroke-linejoin="round" d="M 15460,3732 L 1868,3732"/>
 <path fill="none" stroke="rgb(179,179,179)" stroke-linejoin="round" d="M 15460,2855 L 1868,2855"/>
 <path fill="none" stroke="rgb(179,179,179)" stroke-linejoin="round" d="M 15460,1978 L 1868,1978"/>
 <path fill="none" stroke="rgb(179,179,179)" stroke-linejoin="round" d="M 15460,1102 L 1868,1102"/>
 <path fill="none" stroke="rgb(179,179,179)" stroke-linejoin="round" d="M 1868,7389 L 1868,7239"/>
 <path fill="none" stroke="rgb(179,179,179)" stroke-linejoin="round" d="M 1868,7389 L 1868,7239"/>
 <path fill="none" stroke="rgb(179,179,179)" stroke-linejoin="round" d="M 2667,7389 L 2667,7239"/>
 <path fill="none" stroke="rgb(179,179,179)" stroke-linejoin="round" d="M 2667,7389 L 2667,7239"/>
 <path fill="none" stroke="rgb(179,179,179)" stroke-linejoin="round" d="M 3467,7389 L 3467,7239"/>
 <path fill="none" stroke="rgb(179,179,179)" stroke-linejoin="round" d="M 3467,7389 L 3467,7239"/>
 <path fill="none" stroke="rgb(179,179,179)" stroke-linejoin="round" d="M 4266,7389 L 4266,7239"/>
 <path fill="none" stroke="rgb(179,179,179)" stroke-linejoin="round" d="M 4266,7389 L 4266,7239"/>
 <path fill="none" stroke="rgb(179,179,179)" stroke-linejoin="round" d="M 5066,7389 L 5066,7239"/>
 <path fill="none" stroke="rgb(179,179,179)" stroke-linejoin="round" d="M 5066,7389 L 5066,7239"/>
 <path fill="none" stroke="rgb(179,179,179)" stroke-linejoin="round" d="M 5865,7389 L 5865,7239"/>
 <path fill="none" stroke="rgb(179,179,179)" stroke-linejoin="round" d="M 5865,7389 L 5865,7239"/>
 <path fill="none" stroke="rgb(179,179,179)" stroke-linejoin="round" d="M 6665,7389 L 6665,7239"/>
 <path fill="none" stroke="rgb(179,179,179)" stroke-linejoin="round" d="M 6665,7389 L 6665,7239"/>
 <path fill="none" stroke="rgb(179,179,179)" stroke-linejoin="round" d="M 7465,7389 L 7465,7239"/>
 <path fill="none" stroke="rgb(179,179,179)" stroke-linejoin="round" d="M 7465,7389 L 7465,7239"/>
 <path fill="none" stroke="rgb(179,179,179)" stroke-linejoin="round" d="M 8263,7389 L 8263,7239"/>
 <path fill="none" stroke="rgb(179,179,179)" stroke-linejoin="round" d="M 8263,7389 L 8263,7239"/>
 <path fill="none" stroke="rgb(179,179,179)" stroke-linejoin="round" d="M 9063,7389 L 9063,7239"/>
 <path fill="none" stroke="rgb(179,179,179)" stroke-linejoin="round" d="M 9063,7389 L 9063,7239"/>
 <path fill="none" stroke="rgb(179,179,179)" stroke-linejoin="round" d="M 9862,7389 L 9862,7239"/>
 <path fill="none" stroke="rgb(179,179,179)" stroke-linejoin="round" d="M 9862,7389 L 9862,7239"/>
 <path fill="none" stroke="rgb(179,179,179)" stroke-linejoin="round" d="M 10662,7389 L 10662,7239"/>
 <path fill="none" stroke="rgb(179,179,179)" stroke-linejoin="round" d="M 10662,7389 L 10662,7239"/>
 <path fill="none" stroke="rgb(179,179,179)" stroke-linejoin="round" d="M 11462,7389 L 11462,7239"/>
 <path fill="none" stroke="rgb(179,179,179)" stroke-linejoin="round" d="M 11462,7389 L 11462,7239"/>
 <path fill="none" stroke="rgb(179,179,179)" stroke-linejoin="round" d="M 12261,7389 L 12261,7239"/>
 <path fill="none" stroke="rgb(179,179,179)" stroke-linejoin="round" d="M 12261,7389 L 12261,7239"/>
 <path fill="none" stroke="rgb(179,179,179)" stroke-linejoin="round" d="M 13061,7389 L 13061,7239"/>
 <path fill="none" stroke="rgb(179,179,179)" stroke-linejoin="round" d="M 13061,7389 L 13061,7239"/>
 <path fill="none" stroke="rgb(179,179,179)" stroke-linejoin="round" d="M 13860,7389 L 13860,7239"/>
 <path fill="none" stroke="rgb(179,179,179)" stroke-linejoin="round" d="M 13860,7389 L 13860,7239"/>
 <path fill="none" stroke="rgb(179,179,179)" stroke-linejoin="round" d="M 14660,7389 L 14660,7239"/>
 <path fill="none" stroke="rgb(179,179,179)" stroke-linejoin="round" d="M 14660,7389 L 14660,7239"/>
 <path fill="none" stroke="rgb(179,179,179)" stroke-linejoin="round" d="M 15460,7389 L 15460,7239"/>
 <path fill="none" stroke="rgb(179,179,179)" stroke-linejoin="round" d="M 15460,7389 L 15460,7239"/>
 <path fill="none" stroke="rgb(179,179,179)" stroke-linejoin="round" d="M 1868,7239 L 15460,7239"/>
 <path fill="none" stroke="rgb(179,179,179)" stroke-linejoin="round" d="M 1718,7239 L 1868,7239"/>
 <path fill="none" stroke="rgb(179,179,179)" stroke-linejoin="round" d="M 1718,7239 L 1868,7239"/>
 <path fill="none" stroke="rgb(179,179,179)" stroke-linejoin="round" d="M 1718,6362 L 1868,6362"/>
 <path fill="none" stroke="rgb(179,179,179)" stroke-linejoin="round" d="M 1718,6362 L 1868,6362"/>
 <path fill="none" stroke="rgb(179,179,179)" stroke-linejoin="round" d="M 1718,5485 L 1868,5485"/>
 <path fill="none" stroke="rgb(179,179,179)" stroke-linejoin="round" d="M 1718,5485 L 1868,5485"/>
 <path fill="none" stroke="rgb(179,179,179)" stroke-linejoin="round" d="M 1718,4608 L 1868,4608"/>
 <path fill="none" stroke="rgb(179,179,179)" stroke-linejoin="round" d="M 1718,4608 L 1868,4608"/>
 <path fill="none" stroke="rgb(179,179,179)" stroke-linejoin="round" d="M 1718,3732 L 1868,3732"/>
 <path fill="none" stroke="rgb(179,179,179)" stroke-linejoin="round" d="M 1718,3732 L 1868,3732"/>
 <path fill="none" stroke="rgb(179,179,179)" stroke-linejoin="round" d="M 1718,2855 L 1868,2855"/>
 <path fill="none" stroke="rgb(179,179,179)" stroke-linejoin="round" d="M 1718,2855 L 1868,2855"/>
 <path fill="none" stroke="rgb(179,179,179)" stroke-linejoin="round" d="M 1718,1978 L 1868,1978"/>
 <path fill="none" stroke="rgb(179,179,179)" stroke-linejoin="round" d="M 1718,1978 L 1868,1978"/>
 <path fill="none" stroke="rgb(179,179,179)" stroke-linejoin="round" d="M 1718,1102 L 1868,1102"/>
 <path fill="none" stroke="rgb(179,179,179)" stroke-linejoin="round" d="M 1718,1102 L 1868,1102"/>
 <path fill="none" stroke="rgb(179,179,179)" stroke-linejoin="round" d="M 1868,7239 L 1868,1102"/>
 <path fill="rgb(0,69,134)" stroke="none" d="M 12461,7239 L 12861,7239 12861,6362 12461,6362 12461,7239 Z"/>
 <path fill="rgb(0,69,134)" stroke="none" d="M 11661,7239 L 12061,7239 12061,6362 11661,6362 11661,7239 Z"/>
 <path fill="rgb(0,69,134)" stroke="none" d="M 10862,7239 L 11262,7239 11262,5485 10862,5485 10862,7239 Z"/>
 <path fill="rgb(0,69,134)" stroke="none" d="M 10062,7239 L 10462,7239 10462,4608 10062,4608 10062,7239 Z"/>
 <path fill="rgb(0,69,134)" stroke="none" d="M 9263,7239 L 9662,7239 9662,5485 9263,5485 9263,7239 Z"/>
 <path fill="rgb(0,69,134)" stroke="none" d="M 8463,7239 L 8863,7239 8863,1978 8463,1978 8463,7239 Z"/>
 <path fill="rgb(0,69,134)" stroke="none" d="M 6865,7239 L 7265,7239 7265,6362 6865,6362 6865,7239 Z"/>
 <text class="TextShape"><tspan class="TextParagraph" font-family="Arial" font-size="353px" font-weight="400"><tspan class="TextPosition" x="2174" y="7807"><tspan fill="rgb(0,0,0)" stroke="none">0</tspan></tspan></tspan></text>
 <text class="TextShape"><tspan class="TextParagraph" font-family="Arial" font-size="353px" font-weight="400"><tspan class="TextPosition" x="2974" y="7807"><tspan fill="rgb(0,0,0)" stroke="none">1</tspan></tspan></tspan></text>
 <text class="TextShape"><tspan class="TextParagraph" font-family="Arial" font-size="353px" font-weight="400"><tspan class="TextPosition" x="3773" y="7807"><tspan fill="rgb(0,0,0)" stroke="none">2</tspan></tspan></tspan></text>
 <text class="TextShape"><tspan class="TextParagraph" font-family="Arial" font-size="353px" font-weight="400"><tspan class="TextPosition" x="4573" y="7807"><tspan fill="rgb(0,0,0)" stroke="none">3</tspan></tspan></tspan></text>
 <text class="TextShape"><tspan class="TextParagraph" font-family="Arial" font-size="353px" font-weight="400"><tspan class="TextPosition" x="5373" y="7807"><tspan fill="rgb(0,0,0)" stroke="none">4</tspan></tspan></tspan></text>
 <text class="TextShape"><tspan class="TextParagraph" font-family="Arial" font-size="353px" font-weight="400"><tspan class="TextPosition" x="6172" y="7807"><tspan fill="rgb(0,0,0)" stroke="none">5</tspan></tspan></tspan></text>
 <text class="TextShape"><tspan class="TextParagraph" font-family="Arial" font-size="353px" font-weight="400"><tspan class="TextPosition" x="6972" y="7807"><tspan fill="rgb(0,0,0)" stroke="none">6</tspan></tspan></tspan></text>
 <text class="TextShape"><tspan class="TextParagraph" font-family="Arial" font-size="353px" font-weight="400"><tspan class="TextPosition" x="7771" y="7807"><tspan fill="rgb(0,0,0)" stroke="none">7</tspan></tspan></tspan></text>
 <text class="TextShape"><tspan class="TextParagraph" font-family="Arial" font-size="353px" font-weight="400"><tspan class="TextPosition" x="8571" y="7807"><tspan fill="rgb(0,0,0)" stroke="none">8</tspan></tspan></tspan></text>
 <text class="TextShape"><tspan class="TextParagraph" font-family="Arial" font-size="353px" font-weight="400"><tspan class="TextPosition" x="9371" y="7807"><tspan fill="rgb(0,0,0)" stroke="none">9</tspan></tspan></tspan></text>
 <text class="TextShape"><tspan class="TextParagraph" font-family="Arial" font-size="353px" font-weight="400"><tspan class="TextPosition" x="10078" y="7807"><tspan fill="rgb(0,0,0)" stroke="none">10</tspan></tspan></tspan></text>
 <text class="TextShape"><tspan class="TextParagraph" font-family="Arial" font-size="353px" font-weight="400"><tspan class="TextPosition" x="10878" y="7807"><tspan fill="rgb(0,0,0)" stroke="none">11</tspan></tspan></tspan></text>
 <text class="TextShape"><tspan class="TextParagraph" font-family="Arial" font-size="353px" font-weight="400"><tspan class="TextPosition" x="11677" y="7807"><tspan fill="rgb(0,0,0)" stroke="none">12</tspan></tspan></tspan></text>
 <text class="TextShape"><tspan class="TextParagraph" font-family="Arial" font-size="353px" font-weight="400"><tspan class="TextPosition" x="12477" y="7807"><tspan fill="rgb(0,0,0)" stroke="none">13</tspan></tspan></tspan></text>
 <text class="TextShape"><tspan class="TextParagraph" font-family="Arial" font-size="353px" font-weight="400"><tspan class="TextPosition" x="13277" y="7807"><tspan fill="rgb(0,0,0)" stroke="none">14</tspan></tspan></tspan></text>
 <text class="TextShape"><tspan class="TextParagraph" font-family="Arial" font-size="353px" font-weight="400"><tspan class="TextPosition" x="14076" y="7807"><tspan fill="rgb(0,0,0)" stroke="none">15</tspan></tspan></tspan></text>
 <text class="TextShape"><tspan class="TextParagraph" font-family="Arial" font-size="353px" font-weight="400"><tspan class="TextPosition" x="14876" y="7807"><tspan fill="rgb(0,0,0)" stroke="none">16</tspan></tspan></tspan></text>
 <text class="TextShape"><tspan class="TextParagraph" font-family="Arial" font-size="353px" font-weight="400"><tspan class="TextPosition" x="1433" y="7360"><tspan fill="rgb(0,0,0)" stroke="none">0</tspan></tspan></tspan></text>
 <text class="TextShape"><tspan class="TextParagraph" font-family="Arial" font-size="353px" font-weight="400"><tspan class="TextPosition" x="1433" y="6483"><tspan fill="rgb(0,0,0)" stroke="none">1</tspan></tspan></tspan></text>
 <text class="TextShape"><tspan class="TextParagraph" font-family="Arial" font-size="353px" font-weight="400"><tspan class="TextPosition" x="1433" y="5606"><tspan fill="rgb(0,0,0)" stroke="none">2</tspan></tspan></tspan></text>
 <text class="TextShape"><tspan class="TextParagraph" font-family="Arial" font-size="353px" font-weight="400"><tspan class="TextPosition" x="1433" y="4729"><tspan fill="rgb(0,0,0)" stroke="none">3</tspan></tspan></tspan></text>
 <text class="TextShape"><tspan class="TextParagraph" font-family="Arial" font-size="353px" font-weight="400"><tspan class="TextPosition" x="1433" y="3852"><tspan fill="rgb(0,0,0)" stroke="none">4</tspan></tspan></tspan></text>
 <text class="TextShape"><tspan class="TextParagraph" font-family="Arial" font-size="353px" font-weight="400"><tspan class="TextPosition" x="1433" y="2975"><tspan fill="rgb(0,0,0)" stroke="none">5</tspan></tspan></tspan></text>
 <text class="TextShape"><tspan class="TextParagraph" font-family="Arial" font-size="353px" font-weight="400"><tspan class="TextPosition" x="1433" y="2098"><tspan fill="rgb(0,0,0)" stroke="none">6</tspan></tspan></tspan></text>
 <text class="TextShape"><tspan class="TextParagraph" font-family="Arial" font-size="353px" font-weight="400"><tspan class="TextPosition" x="1433" y="1222"><tspan fill="rgb(0,0,0)" stroke="none">7</tspan></tspan></tspan></text>
 <text class="TextShape"><tspan class="TextParagraph" font-family="Arial" font-size="318px" font-weight="400"><tspan class="TextPosition" x="7176" y="8454"><tspan fill="rgb(0,0,0)" stroke="none"># correct answers</tspan></tspan></tspan></text>
 <text class="TextShape"><tspan class="TextParagraph" font-family="Arial" font-size="318px" font-weight="400"><tspan class="TextPosition" x="938" y="4924" transform="translate(938,4924) rotate(-90) translate(-938,-4924)"><tspan fill="rgb(0,0,0)" stroke="none"># users</tspan></tspan></tspan></text>
 <path fill="rgb(0,69,134)" stroke="none" d="M 5266,7239 L 5666,7239 5666,6362 5266,6362 5266,7239 Z"/>
</svg>