<?xml version="1.0" encoding="UTF-8"?>
<!DOCTYPE svg PUBLIC "-//W3C//DTD SVG 1.1//EN" "http://www.w3.org/Graphics/SVG/1.1/DTD/svg11.dtd">
<svg width="160mm" height="90mm" viewBox="0 0 16000 9000">
 <path fill="rgb(255,255,255)" stroke="none" d="M 8077,8966 L 77,8966 77,-33 16076,-33 16076,8966 8077,8966 Z"/>
 <path fill="none" stroke="rgb(179,179,179)" stroke-linejoin="round" d="M 8732,7158 L 2029,7158 2029,1021 15436,1021 15436,7158 8732,7158 Z"/>
 <path fill="none" stroke="rgb(179,179,179)" stroke-linejoin="round" d="M 15436,7157 L 2029,7157"/>
 <path fill="none" stroke="rgb(179,179,179)" stroke-linejoin="round" d="M 15436,6134 L 2029,6134"/>
 <path fill="none" stroke="rgb(179,179,179)" stroke-linejoin="round" d="M 15436,5111 L 2029,5111"/>
 <path fill="none" stroke="rgb(179,179,179)" stroke-linejoin="round" d="M 15436,4089 L 2029,4089"/>
 <path fill="none" stroke="rgb(179,179,179)" stroke-linejoin="round" d="M 15436,3065 L 2029,3065"/>
 <path fill="none" stroke="rgb(179,179,179)" stroke-linejoin="round" d="M 15436,2042 L 2029,2042"/>
 <path fill="none" stroke="rgb(179,179,179)" stroke-linejoin="round" d="M 15436,1019 L 2029,1019"/>
 <path fill="none" stroke="rgb(179,179,179)" stroke-linejoin="round" d="M 2029,7307 L 2029,7157"/>
 <path fill="none" stroke="rgb(179,179,179)" stroke-linejoin="round" d="M 2029,7307 L 2029,7157"/>
 <path fill="none" stroke="rgb(179,179,179)" stroke-linejoin="round" d="M 3518,7307 L 3518,7157"/>
 <path fill="none" stroke="rgb(179,179,179)" stroke-linejoin="round" d="M 3518,7307 L 3518,7157"/>
 <path fill="none" stroke="rgb(179,179,179)" stroke-linejoin="round" d="M 5008,7307 L 5008,7157"/>
 <path fill="none" stroke="rgb(179,179,179)" stroke-linejoin="round" d="M 5008,7307 L 5008,7157"/>
 <path fill="none" stroke="rgb(179,179,179)" stroke-linejoin="round" d="M 6498,7307 L 6498,7157"/>
 <path fill="none" stroke="rgb(179,179,179)" stroke-linejoin="round" d="M 6498,7307 L 6498,7157"/>
 <path fill="none" stroke="rgb(179,179,179)" stroke-linejoin="round" d="M 7988,7307 L 7988,7157"/>
 <path fill="none" stroke="rgb(179,179,179)" stroke-linejoin="round" d="M 7988,7307 L 7988,7157"/>
 <path fill="none" stroke="rgb(179,179,179)" stroke-linejoin="round" d="M 9476,7307 L 9476,7157"/>
 <path fill="none" stroke="rgb(179,179,179)" stroke-linejoin="round" d="M 9476,7307 L 9476,7157"/>
 <path fill="none" stroke="rgb(179,179,179)" stroke-linejoin="round" d="M 10966,7307 L 10966,7157"/>
 <path fill="none" stroke="rgb(179,179,179)" stroke-linejoin="round" d="M 10966,7307 L 10966,7157"/>
 <path fill="none" stroke="rgb(179,179,179)" stroke-linejoin="round" d="M 12456,7307 L 12456,7157"/>
 <path fill="none" stroke="rgb(179,179,179)" stroke-linejoin="round" d="M 12456,7307 L 12456,7157"/>
 <path fill="none" stroke="rgb(179,179,179)" stroke-linejoin="round" d="M 13946,7307 L 13946,7157"/>
 <path fill="none" stroke="rgb(179,179,179)" stroke-linejoin="round" d="M 13946,7307 L 13946,7157"/>
 <path fill="none" stroke="rgb(179,179,179)" stroke-linejoin="round" d="M 15436,7307 L 15436,7157"/>
 <path fill="none" stroke="rgb(179,179,179)" stroke-linejoin="round" d="M 15436,7307 L 15436,7157"/>
 <path fill="none" stroke="rgb(179,179,179)" stroke-linejoin="round" d="M 2029,7157 L 15436,7157"/>
 <path fill="none" stroke="rgb(179,179,179)" stroke-linejoin="round" d="M 1879,7157 L 2029,7157"/>
 <path fill="none" stroke="rgb(179,179,179)" stroke-linejoin="round" d="M 1879,7157 L 2029,7157"/>
 <path fill="none" stroke="rgb(179,179,179)" stroke-linejoin="round" d="M 1879,6134 L 2029,6134"/>
 <path fill="none" stroke="rgb(179,179,179)" stroke-linejoin="round" d="M 1879,6134 L 2029,6134"/>
 <path fill="none" stroke="rgb(179,179,179)" stroke-linejoin="round" d="M 1879,5111 L 2029,5111"/>
 <path fill="none" stroke="rgb(179,179,179)" stroke-linejoin="round" d="M 1879,5111 L 2029,5111"/>
 <path fill="none" stroke="rgb(179,179,179)" stroke-linejoin="round" d="M 1879,4089 L 2029,4089"/>
 <path fill="none" stroke="rgb(179,179,179)" stroke-linejoin="round" d="M 1879,4089 L 2029,4089"/>
 <path fill="none" stroke="rgb(179,179,179)" stroke-linejoin="round" d="M 1879,3065 L 2029,3065"/>
 <path fill="none" stroke="rgb(179,179,179)" stroke-linejoin="round" d="M 1879,3065 L 2029,3065"/>
 <path fill="none" stroke="rgb(179,179,179)" stroke-linejoin="round" d="M 1879,2043 L 2029,2043"/>
 <path fill="none" stroke="rgb(179,179,179)" stroke-linejoin="round" d="M 1879,2043 L 2029,2043"/>
 <path fill="none" stroke="rgb(179,179,179)" stroke-linejoin="round" d="M 1879,1019 L 2029,1019"/>
 <path fill="none" stroke="rgb(179,179,179)" stroke-linejoin="round" d="M 1879,1019 L 2029,1019"/>
 <path fill="none" stroke="rgb(179,179,179)" stroke-linejoin="round" d="M 2029,7157 L 2029,1019"/>
 <path fill="rgb(255,211,32)" stroke="none" d="M 14318,7157 L 15063,7157 15063,1531 14318,1531 14318,7157 Z"/>
 <path fill="rgb(255,211,32)" stroke="none" d="M 12828,7157 L 13573,7157 13573,5622 12828,5622 12828,7157 Z"/>
 <path fill="rgb(255,211,32)" stroke="none" d="M 9849,7157 L 10594,7157 10594,6134 9849,6134 9849,7157 Z"/>
 <text class="TextShape"><tspan class="TextParagraph" font-family="Arial" font-size="353px" font-weight="400"><tspan class="TextPosition" x="2680" y="7725"><tspan fill="rgb(0,0,0)" stroke="none">0</tspan></tspan></tspan></text>
 <text class="TextShape"><tspan class="TextParagraph" font-family="Arial" font-size="353px" font-weight="400"><tspan class="TextPosition" x="4170" y="7725"><tspan fill="rgb(0,0,0)" stroke="none">1</tspan></tspan></tspan></text>
 <text class="TextShape"><tspan class="TextParagraph" font-family="Arial" font-size="353px" font-weight="400"><tspan class="TextPosition" x="5660" y="7725"><tspan fill="rgb(0,0,0)" stroke="none">2</tspan></tspan></tspan></text>
 <text class="TextShape"><tspan class="TextParagraph" font-family="Arial" font-size="353px" font-weight="400"><tspan class="TextPosition" x="7150" y="7725"><tspan fill="rgb(0,0,0)" stroke="none">3</tspan></tspan></tspan></text>
 <text class="TextShape"><tspan class="TextParagraph" font-family="Arial" font-size="353px" font-weight="400"><tspan class="TextPosition" x="8640" y="7725"><tspan fill="rgb(0,0,0)" stroke="none">4</tspan></tspan></tspan></text>
 <text class="TextShape"><tspan class="TextParagraph" font-family="Arial" font-size="353px" font-weight="400"><tspan class="TextPosition" x="10129" y="7725"><tspan fill="rgb(0,0,0)" stroke="none">5</tspan></tspan></tspan></text>
 <text class="TextShape"><tspan class="TextParagraph" font-family="Arial" font-size="353px" font-weight="400"><tspan class="TextPosition" x="11619" y="7725"><tspan fill="rgb(0,0,0)" stroke="none">6</tspan></tspan></tspan></text>
 <text class="TextShape"><tspan class="TextParagraph" font-family="Arial" font-size="353px" font-weight="400"><tspan class="TextPosition" x="13109" y="7725"><tspan fill="rgb(0,0,0)" stroke="none">7</tspan></tspan></tspan></text>
 <text class="TextShape"><tspan class="TextParagraph" font-family="Arial" font-size="353px" font-weight="400"><tspan class="TextPosition" x="14599" y="7725"><tspan fill="rgb(0,0,0)" stroke="none">8</tspan></tspan></tspan></text>
 <text class="TextShape"><tspan class="TextParagraph" font-family="Arial" font-size="353px" font-weight="400"><tspan class="TextPosition" x="1594" y="7278"><tspan fill="rgb(0,0,0)" stroke="none">0</tspan></tspan></tspan></text>
 <text class="TextShape"><tspan class="TextParagraph" font-family="Arial" font-size="353px" font-weight="400"><tspan class="TextPosition" x="1594" y="6255"><tspan fill="rgb(0,0,0)" stroke="none">2</tspan></tspan></tspan></text>
 <text class="TextShape"><tspan class="TextParagraph" font-family="Arial" font-size="353px" font-weight="400"><tspan class="TextPosition" x="1594" y="5232"><tspan fill="rgb(0,0,0)" stroke="none">4</tspan></tspan></tspan></text>
 <text class="TextShape"><tspan class="TextParagraph" font-family="Arial" font-size="353px" font-weight="400"><tspan class="TextPosition" x="1594" y="4209"><tspan fill="rgb(0,0,0)" stroke="none">6</tspan></tspan></tspan></text>
 <text class="TextShape"><tspan class="TextParagraph" font-family="Arial" font-size="353px" font-weight="400"><tspan class="TextPosition" x="1594" y="3185"><tspan fill="rgb(0,0,0)" stroke="none">8</tspan></tspan></tspan></text>
 <text class="TextShape"><tspan class="TextParagraph" font-family="Arial" font-size="353px" font-weight="400"><tspan class="TextPosition" x="1409" y="2163"><tspan fill="rgb(0,0,0)" stroke="none">10</tspan></tspan></tspan></text>
 <text class="TextShape"><tspan class="TextParagraph" font-family="Arial" font-size="353px" font-weight="400"><tspan class="TextPosition" x="1409" y="1139"><tspan fill="rgb(0,0,0)" stroke="none">12</tspan></tspan></tspan></text>
 <text class="TextShape"><tspan class="TextParagraph" font-family="Arial" font-size="318px" font-weight="400"><tspan class="TextPosition" x="7152" y="8372"><tspan fill="rgb(0,0,0)" stroke="none"># correct answers</tspan></tspan></tspan></text>
 <text class="TextShape"><tspan class="TextParagraph" font-family="Arial" font-size="318px" font-weight="400"><tspan class="TextPosition" x="914" y="4842" transform="translate(914,4842) rotate(-90) translate(-914,-4842)"><tspan fill="rgb(0,0,0)" stroke="none"># users</tspan></tspan></tspan></text>
 <path fill="rgb(255,211,32)" stroke="none" d="M 8359,7157 L 9104,7157 9104,6645 8359,6645 8359,7157 Z"/>
</svg>