<?xml version="1.0" encoding="UTF-8"?>
<!DOCTYPE svg PUBLIC "-//W3C//DTD SVG 1.1//EN" "http://www.w3.org/Graphics/SVG/1.1/DTD/svg11.dtd">
<svg width="160mm" height="94mm" viewBox="0 0 16000 9400">
 <path fill="rgb(255,255,255)" stroke="none" d="M 8101,9338 L 101,9338 101,-33 16101,-33 16101,9338 8101,9338 Z"/>
 <path fill="none" stroke="rgb(179,179,179)" stroke-linejoin="round" d="M 8795,7145 L 1952,7145 1952,955 15638,955 15638,7145 8795,7145 Z"/>
 <path fill="none" stroke="rgb(179,179,179)" stroke-linejoin="round" d="M 15638,7144 L 1952,7144"/>
 <path fill="none" stroke="rgb(179,179,179)" stroke-linejoin="round" d="M 15638,6524 L 1952,6524"/>
 <path fill="none" stroke="rgb(179,179,179)" stroke-linejoin="round" d="M 15638,5905 L 1952,5905"/>
 <path fill="none" stroke="rgb(179,179,179)" stroke-linejoin="round" d="M 15638,5286 L 1952,5286"/>
 <path fill="none" stroke="rgb(179,179,179)" stroke-linejoin="round" d="M 15638,4667 L 1952,4667"/>
 <path fill="none" stroke="rgb(179,179,179)" stroke-linejoin="round" d="M 15638,4049 L 1952,4049"/>
 <path fill="none" stroke="rgb(179,179,179)" stroke-linejoin="round" d="M 15638,3430 L 1952,3430"/>
 <path fill="none" stroke="rgb(179,179,179)" stroke-linejoin="round" d="M 15638,2811 L 1952,2811"/>
 <path fill="none" stroke="rgb(179,179,179)" stroke-linejoin="round" d="M 15638,2192 L 1952,2192"/>
 <path fill="none" stroke="rgb(179,179,179)" stroke-linejoin="round" d="M 15638,1573 L 1952,1573"/>
 <path fill="none" stroke="rgb(179,179,179)" stroke-linejoin="round" d="M 15638,954 L 1952,954"/>
 <path fill="none" stroke="rgb(179,179,179)" stroke-linejoin="round" d="M 1952,7294 L 1952,7144"/>
 <path fill="none" stroke="rgb(179,179,179)" stroke-linejoin="round" d="M 1952,7294 L 1952,7144"/>
 <path fill="none" stroke="rgb(179,179,179)" stroke-linejoin="round" d="M 2757,7294 L 2757,7144"/>
 <path fill="none" stroke="rgb(179,179,179)" stroke-linejoin="round" d="M 2757,7294 L 2757,7144"/>
 <path fill="none" stroke="rgb(179,179,179)" stroke-linejoin="round" d="M 3562,7294 L 3562,7144"/>
 <path fill="none" stroke="rgb(179,179,179)" stroke-linejoin="round" d="M 3562,7294 L 3562,7144"/>
 <path fill="none" stroke="rgb(179,179,179)" stroke-linejoin="round" d="M 4367,7294 L 4367,7144"/>
 <path fill="none" stroke="rgb(179,179,179)" stroke-linejoin="round" d="M 4367,7294 L 4367,7144"/>
 <path fill="none" stroke="rgb(179,179,179)" stroke-linejoin="round" d="M 5172,7294 L 5172,7144"/>
 <path fill="none" stroke="rgb(179,179,179)" stroke-linejoin="round" d="M 5172,7294 L 5172,7144"/>
 <path fill="none" stroke="rgb(179,179,179)" stroke-linejoin="round" d="M 5977,7294 L 5977,7144"/>
 <path fill="none" stroke="rgb(179,179,179)" stroke-linejoin="round" d="M 5977,7294 L 5977,7144"/>
 <path fill="none" stroke="rgb(179,179,179)" stroke-linejoin="round" d="M 6782,7294 L 6782,7144"/>
 <path fill="none" stroke="rgb(179,179,179)" stroke-linejoin="round" d="M 6782,7294 L 6782,7144"/>
 <path fill="none" stroke="rgb(179,179,179)" stroke-linejoin="round" d="M 7587,7294 L 7587,7144"/>
 <path fill="none" stroke="rgb(179,179,179)" stroke-linejoin="round" d="M 7587,7294 L 7587,7144"/>
 <path fill="none" stroke="rgb(179,179,179)" stroke-linejoin="round" d="M 8391,7294 L 8391,7144"/>
 <path fill="none" stroke="rgb(179,179,179)" stroke-linejoin="round" d="M 8391,7294 L 8391,7144"/>
 <path fill="none" stroke="rgb(179,179,179)" stroke-linejoin="round" d="M 9197,7294 L 9197,7144"/>
 <path fill="none" stroke="rgb(179,179,179)" stroke-linejoin="round" d="M 9197,7294 L 9197,7144"/>
 <path fill="none" stroke="rgb(179,179,179)" stroke-linejoin="round" d="M 10002,7294 L 10002,7144"/>
 <path fill="none" stroke="rgb(179,179,179)" stroke-linejoin="round" d="M 10002,7294 L 10002,7144"/>
 <path fill="none" stroke="rgb(179,179,179)" stroke-linejoin="round" d="M 10807,7294 L 10807,7144"/>
 <path fill="none" stroke="rgb(179,179,179)" stroke-linejoin="round" d="M 10807,7294 L 10807,7144"/>
 <path fill="none" stroke="rgb(179,179,179)" stroke-linejoin="round" d="M 11612,7294 L 11612,7144"/>
 <path fill="none" stroke="rgb(179,179,179)" stroke-linejoin="round" d="M 11612,7294 L 11612,7144"/>
 <path fill="none" stroke="rgb(179,179,179)" stroke-linejoin="round" d="M 12417,7294 L 12417,7144"/>
 <path fill="none" stroke="rgb(179,179,179)" stroke-linejoin="round" d="M 12417,7294 L 12417,7144"/>
 <path fill="none" stroke="rgb(179,179,179)" stroke-linejoin="round" d="M 13222,7294 L 13222,7144"/>
 <path fill="none" stroke="rgb(179,179,179)" stroke-linejoin="round" d="M 13222,7294 L 13222,7144"/>
 <path fill="none" stroke="rgb(179,179,179)" stroke-linejoin="round" d="M 14027,7294 L 14027,7144"/>
 <path fill="none" stroke="rgb(179,179,179)" stroke-linejoin="round" d="M 14027,7294 L 14027,7144"/>
 <path fill="none" stroke="rgb(179,179,179)" stroke-linejoin="round" d="M 14832,7294 L 14832,7144"/>
 <path fill="none" stroke="rgb(179,179,179)" stroke-linejoin="round" d="M 14832,7294 L 14832,7144"/>
 <path fill="none" stroke="rgb(179,179,179)" stroke-linejoin="round" d="M 15638,7294 L 15638,7144"/>
 <path fill="none" stroke="rgb(179,179,179)" stroke-linejoin="round" d="M 15638,7294 L 15638,7144"/>
 <path fill="none" stroke="rgb(179,179,179)" stroke-linejoin="round" d="M 1952,7144 L 15638,7144"/>
 <path fill="none" stroke="rgb(179,179,179)" stroke-linejoin="round" d="M 1802,7144 L 1952,7144"/>
 <path fill="none" stroke="rgb(179,179,179)" stroke-linejoin="round" d="M 1802,7144 L 1952,7144"/>
 <path fill="none" stroke="rgb(179,179,179)" stroke-linejoin="round" d="M 1802,6524 L 1952,6524"/>
 <path fill="none" stroke="rgb(179,179,179)" stroke-linejoin="round" d="M 1802,6524 L 1952,6524"/>
 <path fill="none" stroke="rgb(179,179,179)" stroke-linejoin="round" d="M 1802,5905 L 1952,5905"/>
 <path fill="none" stroke="rgb(179,179,179)" stroke-linejoin="round" d="M 1802,5905 L 1952,5905"/>
 <path fill="none" stroke="rgb(179,179,179)" stroke-linejoin="round" d="M 1802,5286 L 1952,5286"/>
 <path fill="none" stroke="rgb(179,179,179)" stroke-linejoin="round" d="M 1802,5286 L 1952,5286"/>
 <path fill="none" stroke="rgb(179,179,179)" stroke-linejoin="round" d="M 1802,4667 L 1952,4667"/>
 <path fill="none" stroke="rgb(179,179,179)" stroke-linejoin="round" d="M 1802,4667 L 1952,4667"/>
 <path fill="none" stroke="rgb(179,179,179)" stroke-linejoin="round" d="M 1802,4049 L 1952,4049"/>
 <path fill="none" stroke="rgb(179,179,179)" stroke-linejoin="round" d="M 1802,4049 L 1952,4049"/>
 <path fill="none" stroke="rgb(179,179,179)" stroke-linejoin="round" d="M 1802,3430 L 1952,3430"/>
 <path fill="none" stroke="rgb(179,179,179)" stroke-linejoin="round" d="M 1802,3430 L 1952,3430"/>
 <path fill="none" stroke="rgb(179,179,179)" stroke-linejoin="round" d="M 1802,2811 L 1952,2811"/>
 <path fill="none" stroke="rgb(179,179,179)" stroke-linejoin="round" d="M 1802,2811 L 1952,2811"/>
 <path fill="none" stroke="rgb(179,179,179)" stroke-linejoin="round" d="M 1802,2192 L 1952,2192"/>
 <path fill="none" stroke="rgb(179,179,179)" stroke-linejoin="round" d="M 1802,2192 L 1952,2192"/>
 <path fill="none" stroke="rgb(179,179,179)" stroke-linejoin="round" d="M 1802,1573 L 1952,1573"/>
 <path fill="none" stroke="rgb(179,179,179)" stroke-linejoin="round" d="M 1802,1573 L 1952,1573"/>
 <path fill="none" stroke="rgb(179,179,179)" stroke-linejoin="round" d="M 1802,954 L 1952,954"/>
 <path fill="none" stroke="rgb(179,179,179)" stroke-linejoin="round" d="M 1802,954 L 1952,954"/>
 <path fill="none" stroke="rgb(179,179,179)" stroke-linejoin="round" d="M 1952,7144 L 1952,954"/>
 <path fill="rgb(87,157,28)" stroke="none" d="M 14229,7144 L 14631,7144 14631,6524 14229,6524 14229,7144 Z"/>
 <path fill="rgb(87,157,28)" stroke="none" d="M 13423,7144 L 13826,7144 13826,1573 13423,1573 13423,7144 Z"/>
 <path fill="rgb(87,157,28)" stroke="none" d="M 12618,7144 L 13021,7144 13021,5286 12618,5286 12618,7144 Z"/>
 <path fill="rgb(87,157,28)" stroke="none" d="M 11813,7144 L 12216,7144 12216,6524 11813,6524 11813,7144 Z"/>
 <path fill="rgb(87,157,28)" stroke="none" d="M 10203,7144 L 10606,7144 10606,6524 10203,6524 10203,7144 Z"/>
 <path fill="rgb(87,157,28)" stroke="none" d="M 9398,7144 L 9800,7144 9800,6524 9398,6524 9398,7144 Z"/>
 <text class="TextShape"><tspan class="TextParagraph" font-family="Arial" font-size="353px" font-weight="400"><tspan class="TextPosition" x="2261" y="7712"><tspan fill="rgb(0,0,0)" stroke="none">0</tspan></tspan></tspan></text>
 <text class="TextShape"><tspan class="TextParagraph" font-family="Arial" font-size="353px" font-weight="400"><tspan class="TextPosition" x="3066" y="7712"><tspan fill="rgb(0,0,0)" stroke="none">1</tspan></tspan></tspan></text>
 <text class="TextShape"><tspan class="TextParagraph" font-family="Arial" font-size="353px" font-weight="400"><tspan class="TextPosition" x="3871" y="7712"><tspan fill="rgb(0,0,0)" stroke="none">2</tspan></tspan></tspan></text>
 <text class="TextShape"><tspan class="TextParagraph" font-family="Arial" font-size="353px" font-weight="400"><tspan class="TextPosition" x="4676" y="7712"><tspan fill="rgb(0,0,0)" stroke="none">3</tspan></tspan></tspan></text>
 <text class="TextShape"><tspan class="TextParagraph" font-family="Arial" font-size="353px" font-weight="400"><tspan class="TextPosition" x="5482" y="7712"><tspan fill="rgb(0,0,0)" stroke="none">4</tspan></tspan></tspan></text>
 <text class="TextShape"><tspan class="TextParagraph" font-family="Arial" font-size="353px" font-weight="400"><tspan class="TextPosition" x="6287" y="7712"><tspan fill="rgb(0,0,0)" stroke="none">5</tspan></tspan></tspan></text>
 <text class="TextShape"><tspan class="TextParagraph" font-family="Arial" font-size="353px" font-weight="400"><tspan class="TextPosition" x="7092" y="7712"><tspan fill="rgb(0,0,0)" stroke="none">6</tspan></tspan></tspan></text>
 <text class="TextShape"><tspan class="TextParagraph" font-family="Arial" font-size="353px" font-weight="400"><tspan class="TextPosition" x="7897" y="7712"><tspan fill="rgb(0,0,0)" stroke="none">7</tspan></tspan></tspan></text>
 <text class="TextShape"><tspan class="TextParagraph" font-family="Arial" font-size="353px" font-weight="400"><tspan class="TextPosition" x="8702" y="7712"><tspan fill="rgb(0,0,0)" stroke="none">8</tspan></tspan></tspan></text>
 <text class="TextShape"><tspan class="TextParagraph" font-family="Arial" font-size="353px" font-weight="400"><tspan class="TextPosition" x="9507" y="7712"><tspan fill="rgb(0,0,0)" stroke="none">9</tspan></tspan></tspan></text>
 <text class="TextShape"><tspan class="TextParagraph" font-family="Arial" font-size="353px" font-weight="400"><tspan class="TextPosition" x="10220" y="7712"><tspan fill="rgb(0,0,0)" stroke="none">10</tspan></tspan></tspan></text>
 <text class="TextShape"><tspan class="TextParagraph" font-family="Arial" font-size="353px" font-weight="400"><tspan class="TextPosition" x="11025" y="7712"><tspan fill="rgb(0,0,0)" stroke="none">11</tspan></tspan></tspan></text>
 <text class="TextShape"><tspan class="TextParagraph" font-family="Arial" font-size="353px" font-weight="400"><tspan class="TextPosition" x="11830" y="7712"><tspan fill="rgb(0,0,0)" stroke="none">12</tspan></tspan></tspan></text>
 <text class="TextShape"><tspan class="TextParagraph" font-family="Arial" font-size="353px" font-weight="400"><tspan class="TextPosition" x="12636" y="7712"><tspan fill="rgb(0,0,0)" stroke="none">13</tspan></tspan></tspan></text>
 <text class="TextShape"><tspan class="TextParagraph" font-family="Arial" font-size="353px" font-weight="400"><tspan class="TextPosition" x="13441" y="7712"><tspan fill="rgb(0,0,0)" stroke="none">14</tspan></tspan></tspan></text>
 <text class="TextShape"><tspan class="TextParagraph" font-family="Arial" font-size="353px" font-weight="400"><tspan class="TextPosition" x="14246" y="7712"><tspan fill="rgb(0,0,0)" stroke="none">15</tspan></tspan></tspan></text>
 <text class="TextShape"><tspan class="TextParagraph" font-family="Arial" font-size="353px" font-weight="400"><tspan class="TextPosition" x="15051" y="7712"><tspan fill="rgb(0,0,0)" stroke="none">16</tspan></tspan></tspan></text>
 <text class="TextShape"><tspan class="TextParagraph" font-family="Arial" font-size="353px" font-weight="400"><tspan class="TextPosition" x="1517" y="7265"><tspan fill="rgb(0,0,0)" stroke="none">0</tspan></tspan></tspan></text>
 <text class="TextShape"><tspan class="TextParagraph" font-family="Arial" font-size="353px" font-weight="400"><tspan class="TextPosition" x="1517" y="6645"><tspan fill="rgb(0,0,0)" stroke="none">1</tspan></tspan></tspan></text>
 <text class="TextShape"><tspan class="TextParagraph" font-family="Arial" font-size="353px" font-weight="400"><tspan class="TextPosition" x="1517" y="6026"><tspan fill="rgb(0,0,0)" stroke="none">2</tspan></tspan></tspan></text>
 <text class="TextShape"><tspan class="TextParagraph" font-family="Arial" font-size="353px" font-weight="400"><tspan class="TextPosition" x="1517" y="5407"><tspan fill="rgb(0,0,0)" stroke="none">3</tspan></tspan></tspan></text>
 <text class="TextShape"><tspan class="TextParagraph" font-family="Arial" font-size="353px" font-weight="400"><tspan class="TextPosition" x="1517" y="4788"><tspan fill="rgb(0,0,0)" stroke="none">4</tspan></tspan></tspan></text>
 <text class="TextShape"><tspan class="TextParagraph" font-family="Arial" font-size="353px" font-weight="400"><tspan class="TextPosition" x="1517" y="4169"><tspan fill="rgb(0,0,0)" stroke="none">5</tspan></tspan></tspan></text>
 <text class="TextShape"><tspan class="TextParagraph" font-family="Arial" font-size="353px" font-weight="400"><tspan class="TextPosition" x="1517" y="3550"><tspan fill="rgb(0,0,0)" stroke="none">6</tspan></tspan></tspan></text>
 <text class="TextShape"><tspan class="TextParagraph" font-family="Arial" font-size="353px" font-weight="400"><tspan class="TextPosition" x="1517" y="2931"><tspan fill="rgb(0,0,0)" stroke="none">7</tspan></tspan></tspan></text>
 <text class="TextShape"><tspan class="TextParagraph" font-family="Arial" font-size="353px" font-weight="400"><tspan class="TextPosition" x="1517" y="2312"><tspan fill="rgb(0,0,0)" stroke="none">8</tspan></tspan></tspan></text>
 <text class="TextShape"><tspan class="TextParagraph" font-family="Arial" font-size="353px" font-weight="400"><tspan class="TextPosition" x="1517" y="1693"><tspan fill="rgb(0,0,0)" stroke="none">9</tspan></tspan></tspan></text>
 <text class="TextShape"><tspan class="TextParagraph" font-family="Arial" font-size="353px" font-weight="400"><tspan class="TextPosition" x="1332" y="1074"><tspan fill="rgb(0,0,0)" stroke="none">10</tspan></tspan></tspan></text>
 <text class="TextShape"><tspan class="TextParagraph" font-family="Arial" font-size="318px" font-weight="400"><tspan class="TextPosition" x="7215" y="8366"><tspan fill="rgb(0,0,0)" stroke="none"># correct answers</tspan></tspan></tspan></text>
 <text class="TextShape"><tspan class="TextParagraph" font-family="Arial" font-size="318px" font-weight="400"><tspan class="TextPosition" x="837" y="4802" transform="translate(837,4802) rotate(-90) translate(-837,-4802)"><tspan fill="rgb(0,0,0)" stroke="none"># users</tspan></tspan></tspan></text>
 <path fill="rgb(87,157,28)" stroke="none" d="M 7789,7144 L 8190,7144 8190,6524 7789,6524 7789,7144 Z"/>
</svg>