<?xml version="1.0" encoding="UTF-8"?>
<!DOCTYPE svg PUBLIC "-//W3C//DTD SVG 1.1//EN" "http://www.w3.org/Graphics/SVG/1.1/DTD/svg11.dtd">
<svg width="160mm" height="90mm" viewBox="0 0 16000 9000">
 <path fill="rgb(255,255,255)" stroke="none" d="M 8016,9038 L 16,9038 16,39 16015,39 16015,9038 8016,9038 Z"/>
 <path fill="none" stroke="rgb(179,179,179)" stroke-linejoin="round" d="M 8671,7230 L 1968,7230 1968,1093 15375,1093 15375,7230 8671,7230 Z"/>
 <path fill="none" stroke="rgb(179,179,179)" stroke-linejoin="round" d="M 15375,7229 L 1968,7229"/>
 <path fill="none" stroke="rgb(179,179,179)" stroke-linejoin="round" d="M 15375,6461 L 1968,6461"/>
 <path fill="none" stroke="rgb(179,179,179)" stroke-linejoin="round" d="M 15375,5694 L 1968,5694"/>
 <path fill="none" stroke="rgb(179,179,179)" stroke-linejoin="round" d="M 15375,4927 L 1968,4927"/>
 <path fill="none" stroke="rgb(179,179,179)" stroke-linejoin="round" d="M 15375,4161 L 1968,4161"/>
 <path fill="none" stroke="rgb(179,179,179)" stroke-linejoin="round" d="M 15375,3393 L 1968,3393"/>
 <path fill="none" stroke="rgb(179,179,179)" stroke-linejoin="round" d="M 15375,2626 L 1968,2626"/>
 <path fill="none" stroke="rgb(179,179,179)" stroke-linejoin="round" d="M 15375,1859 L 1968,1859"/>
 <path fill="none" stroke="rgb(179,179,179)" stroke-linejoin="round" d="M 15375,1092 L 1968,1092"/>
 <path fill="none" stroke="rgb(179,179,179)" stroke-linejoin="round" d="M 1968,7379 L 1968,7229"/>
 <path fill="none" stroke="rgb(179,179,179)" stroke-linejoin="round" d="M 1968,7379 L 1968,7229"/>
 <path fill="none" stroke="rgb(179,179,179)" stroke-linejoin="round" d="M 2504,7379 L 2504,7229"/>
 <path fill="none" stroke="rgb(179,179,179)" stroke-linejoin="round" d="M 2504,7379 L 2504,7229"/>
 <path fill="none" stroke="rgb(179,179,179)" stroke-linejoin="round" d="M 3040,7379 L 3040,7229"/>
 <path fill="none" stroke="rgb(179,179,179)" stroke-linejoin="round" d="M 3040,7379 L 3040,7229"/>
 <path fill="none" stroke="rgb(179,179,179)" stroke-linejoin="round" d="M 3576,7379 L 3576,7229"/>
 <path fill="none" stroke="rgb(179,179,179)" stroke-linejoin="round" d="M 3576,7379 L 3576,7229"/>
 <path fill="none" stroke="rgb(179,179,179)" stroke-linejoin="round" d="M 4113,7379 L 4113,7229"/>
 <path fill="none" stroke="rgb(179,179,179)" stroke-linejoin="round" d="M 4113,7379 L 4113,7229"/>
 <path fill="none" stroke="rgb(179,179,179)" stroke-linejoin="round" d="M 4649,7379 L 4649,7229"/>
 <path fill="none" stroke="rgb(179,179,179)" stroke-linejoin="round" d="M 4649,7379 L 4649,7229"/>
 <path fill="none" stroke="rgb(179,179,179)" stroke-linejoin="round" d="M 5185,7379 L 5185,7229"/>
 <path fill="none" stroke="rgb(179,179,179)" stroke-linejoin="round" d="M 5185,7379 L 5185,7229"/>
 <path fill="none" stroke="rgb(179,179,179)" stroke-linejoin="round" d="M 5722,7379 L 5722,7229"/>
 <path fill="none" stroke="rgb(179,179,179)" stroke-linejoin="round" d="M 5722,7379 L 5722,7229"/>
 <path fill="none" stroke="rgb(179,179,179)" stroke-linejoin="round" d="M 6258,7379 L 6258,7229"/>
 <path fill="none" stroke="rgb(179,179,179)" stroke-linejoin="round" d="M 6258,7379 L 6258,7229"/>
 <path fill="none" stroke="rgb(179,179,179)" stroke-linejoin="round" d="M 6794,7379 L 6794,7229"/>
 <path fill="none" stroke="rgb(179,179,179)" stroke-linejoin="round" d="M 6794,7379 L 6794,7229"/>
 <path fill="none" stroke="rgb(179,179,179)" stroke-linejoin="round" d="M 7331,7379 L 7331,7229"/>
 <path fill="none" stroke="rgb(179,179,179)" stroke-linejoin="round" d="M 7331,7379 L 7331,7229"/>
 <path fill="none" stroke="rgb(179,179,179)" stroke-linejoin="round" d="M 7867,7379 L 7867,7229"/>
 <path fill="none" stroke="rgb(179,179,179)" stroke-linejoin="round" d="M 7867,7379 L 7867,7229"/>
 <path fill="none" stroke="rgb(179,179,179)" stroke-linejoin="round" d="M 8402,7379 L 8402,7229"/>
 <path fill="none" stroke="rgb(179,179,179)" stroke-linejoin="round" d="M 8402,7379 L 8402,7229"/>
 <path fill="none" stroke="rgb(179,179,179)" stroke-linejoin="round" d="M 8939,7379 L 8939,7229"/>
 <path fill="none" stroke="rgb(179,179,179)" stroke-linejoin="round" d="M 8939,7379 L 8939,7229"/>
 <path fill="none" stroke="rgb(179,179,179)" stroke-linejoin="round" d="M 9475,7379 L 9475,7229"/>
 <path fill="none" stroke="rgb(179,179,179)" stroke-linejoin="round" d="M 9475,7379 L 9475,7229"/>
 <path fill="none" stroke="rgb(179,179,179)" stroke-linejoin="round" d="M 10011,7379 L 10011,7229"/>
 <path fill="none" stroke="rgb(179,179,179)" stroke-linejoin="round" d="M 10011,7379 L 10011,7229"/>
 <path fill="none" stroke="rgb(179,179,179)" stroke-linejoin="round" d="M 10548,7379 L 10548,7229"/>
 <path fill="none" stroke="rgb(179,179,179)" stroke-linejoin="round" d="M 10548,7379 L 10548,7229"/>
 <path fill="none" stroke="rgb(179,179,179)" stroke-linejoin="round" d="M 11084,7379 L 11084,7229"/>
 <path fill="none" stroke="rgb(179,179,179)" stroke-linejoin="round" d="M 11084,7379 L 11084,7229"/>
 <path fill="none" stroke="rgb(179,179,179)" stroke-linejoin="round" d="M 11620,7379 L 11620,7229"/>
 <path fill="none" stroke="rgb(179,179,179)" stroke-linejoin="round" d="M 11620,7379 L 11620,7229"/>
 <path fill="none" stroke="rgb(179,179,179)" stroke-linejoin="round" d="M 12157,7379 L 12157,7229"/>
 <path fill="none" stroke="rgb(179,179,179)" stroke-linejoin="round" d="M 12157,7379 L 12157,7229"/>
 <path fill="none" stroke="rgb(179,179,179)" stroke-linejoin="round" d="M 12693,7379 L 12693,7229"/>
 <path fill="none" stroke="rgb(179,179,179)" stroke-linejoin="round" d="M 12693,7379 L 12693,7229"/>
 <path fill="none" stroke="rgb(179,179,179)" stroke-linejoin="round" d="M 13229,7379 L 13229,7229"/>
 <path fill="none" stroke="rgb(179,179,179)" stroke-linejoin="round" d="M 13229,7379 L 13229,7229"/>
 <path fill="none" stroke="rgb(179,179,179)" stroke-linejoin="round" d="M 13766,7379 L 13766,7229"/>
 <path fill="none" stroke="rgb(179,179,179)" stroke-linejoin="round" d="M 13766,7379 L 13766,7229"/>
 <path fill="none" stroke="rgb(179,179,179)" stroke-linejoin="round" d="M 14302,7379 L 14302,7229"/>
 <path fill="none" stroke="rgb(179,179,179)" stroke-linejoin="round" d="M 14302,7379 L 14302,7229"/>
 <path fill="none" stroke="rgb(179,179,179)" stroke-linejoin="round" d="M 14838,7379 L 14838,7229"/>
 <path fill="none" stroke="rgb(179,179,179)" stroke-linejoin="round" d="M 14838,7379 L 14838,7229"/>
 <path fill="none" stroke="rgb(179,179,179)" stroke-linejoin="round" d="M 15375,7379 L 15375,7229"/>
 <path fill="none" stroke="rgb(179,179,179)" stroke-linejoin="round" d="M 15375,7379 L 15375,7229"/>
 <path fill="none" stroke="rgb(179,179,179)" stroke-linejoin="round" d="M 1968,7229 L 15375,7229"/>
 <path fill="none" stroke="rgb(179,179,179)" stroke-linejoin="round" d="M 1818,7229 L 1968,7229"/>
 <path fill="none" stroke="rgb(179,179,179)" stroke-linejoin="round" d="M 1818,7229 L 1968,7229"/>
 <path fill="none" stroke="rgb(179,179,179)" stroke-linejoin="round" d="M 1818,6461 L 1968,6461"/>
 <path fill="none" stroke="rgb(179,179,179)" stroke-linejoin="round" d="M 1818,6461 L 1968,6461"/>
 <path fill="none" stroke="rgb(179,179,179)" stroke-linejoin="round" d="M 1818,5694 L 1968,5694"/>
 <path fill="none" stroke="rgb(179,179,179)" stroke-linejoin="round" d="M 1818,5694 L 1968,5694"/>
 <path fill="none" stroke="rgb(179,179,179)" stroke-linejoin="round" d="M 1818,4927 L 1968,4927"/>
 <path fill="none" stroke="rgb(179,179,179)" stroke-linejoin="round" d="M 1818,4927 L 1968,4927"/>
 <path fill="none" stroke="rgb(179,179,179)" stroke-linejoin="round" d="M 1818,4161 L 1968,4161"/>
 <path fill="none" stroke="rgb(179,179,179)" stroke-linejoin="round" d="M 1818,4161 L 1968,4161"/>
 <path fill="none" stroke="rgb(179,179,179)" stroke-linejoin="round" d="M 1818,3393 L 1968,3393"/>
 <path fill="none" stroke="rgb(179,179,179)" stroke-linejoin="round" d="M 1818,3393 L 1968,3393"/>
 <path fill="none" stroke="rgb(179,179,179)" stroke-linejoin="round" d="M 1818,2626 L 1968,2626"/>
 <path fill="none" stroke="rgb(179,179,179)" stroke-linejoin="round" d="M 1818,2626 L 1968,2626"/>
 <path fill="none" stroke="rgb(179,179,179)" stroke-linejoin="round" d="M 1818,1859 L 1968,1859"/>
 <path fill="none" stroke="rgb(179,179,179)" stroke-linejoin="round" d="M 1818,1859 L 1968,1859"/>
 <path fill="none" stroke="rgb(179,179,179)" stroke-linejoin="round" d="M 1818,1092 L 1968,1092"/>
 <path fill="none" stroke="rgb(179,179,179)" stroke-linejoin="round" d="M 1818,1092 L 1968,1092"/>
 <path fill="none" stroke="rgb(179,179,179)" stroke-linejoin="round" d="M 1968,7229 L 1968,1092"/>
 <path fill="rgb(255,66,14)" stroke="none" d="M 14972,7229 L 15240,7229 15240,1859 14972,1859 14972,7229 Z"/>
 <path fill="rgb(255,66,14)" stroke="none" d="M 14436,7229 L 14704,7229 14704,6461 14436,6461 14436,7229 Z"/>
 <text class="TextShape"><tspan class="TextParagraph" font-family="Arial" font-size="353px" font-weight="400"><tspan class="TextPosition" x="2143" y="7797"><tspan fill="rgb(0,0,0)" stroke="none">0</tspan></tspan></tspan></text>
 <text class="TextShape"><tspan class="TextParagraph" font-family="Arial" font-size="353px" font-weight="400"><tspan class="TextPosition" x="2679" y="7797"><tspan fill="rgb(0,0,0)" stroke="none">1</tspan></tspan></tspan></text>
 <text class="TextShape"><tspan class="TextParagraph" font-family="Arial" font-size="353px" font-weight="400"><tspan class="TextPosition" x="3215" y="7797"><tspan fill="rgb(0,0,0)" stroke="none">2</tspan></tspan></tspan></text>
 <text class="TextShape"><tspan class="TextParagraph" font-family="Arial" font-size="353px" font-weight="400"><tspan class="TextPosition" x="3752" y="7797"><tspan fill="rgb(0,0,0)" stroke="none">3</tspan></tspan></tspan></text>
 <text class="TextShape"><tspan class="TextParagraph" font-family="Arial" font-size="353px" font-weight="400"><tspan class="TextPosition" x="4288" y="7797"><tspan fill="rgb(0,0,0)" stroke="none">4</tspan></tspan></tspan></text>
 <text class="TextShape"><tspan class="TextParagraph" font-family="Arial" font-size="353px" font-weight="400"><tspan class="TextPosition" x="4824" y="7797"><tspan fill="rgb(0,0,0)" stroke="none">5</tspan></tspan></tspan></text>
 <text class="TextShape"><tspan class="TextParagraph" font-family="Arial" font-size="353px" font-weight="400"><tspan class="TextPosition" x="5361" y="7797"><tspan fill="rgb(0,0,0)" stroke="none">6</tspan></tspan></tspan></text>
 <text class="TextShape"><tspan class="TextParagraph" font-family="Arial" font-size="353px" font-weight="400"><tspan class="TextPosition" x="5897" y="7797"><tspan fill="rgb(0,0,0)" stroke="none">7</tspan></tspan></tspan></text>
 <text class="TextShape"><tspan class="TextParagraph" font-family="Arial" font-size="353px" font-weight="400"><tspan class="TextPosition" x="6433" y="7797"><tspan fill="rgb(0,0,0)" stroke="none">8</tspan></tspan></tspan></text>
 <text class="TextShape"><tspan class="TextParagraph" font-family="Arial" font-size="353px" font-weight="400"><tspan class="TextPosition" x="6970" y="7797"><tspan fill="rgb(0,0,0)" stroke="none">9</tspan></tspan></tspan></text>
 <text class="TextShape"><tspan class="TextParagraph" font-family="Arial" font-size="353px" font-weight="400"><tspan class="TextPosition" x="7414" y="7797"><tspan fill="rgb(0,0,0)" stroke="none">10</tspan></tspan></tspan></text>
 <text class="TextShape"><tspan class="TextParagraph" font-family="Arial" font-size="353px" font-weight="400"><tspan class="TextPosition" x="7950" y="7797"><tspan fill="rgb(0,0,0)" stroke="none">11</tspan></tspan></tspan></text>
 <text class="TextShape"><tspan class="TextParagraph" font-family="Arial" font-size="353px" font-weight="400"><tspan class="TextPosition" x="8487" y="7797"><tspan fill="rgb(0,0,0)" stroke="none">12</tspan></tspan></tspan></text>
 <text class="TextShape"><tspan class="TextParagraph" font-family="Arial" font-size="353px" font-weight="400"><tspan class="TextPosition" x="9023" y="7797"><tspan fill="rgb(0,0,0)" stroke="none">13</tspan></tspan></tspan></text>
 <text class="TextShape"><tspan class="TextParagraph" font-family="Arial" font-size="353px" font-weight="400"><tspan class="TextPosition" x="9559" y="7797"><tspan fill="rgb(0,0,0)" stroke="none">14</tspan></tspan></tspan></text>
 <text class="TextShape"><tspan class="TextParagraph" font-family="Arial" font-size="353px" font-weight="400"><tspan class="TextPosition" x="10095" y="7797"><tspan fill="rgb(0,0,0)" stroke="none">15</tspan></tspan></tspan></text>
 <text class="TextShape"><tspan class="TextParagraph" font-family="Arial" font-size="353px" font-weight="400"><tspan class="TextPosition" x="10632" y="7797"><tspan fill="rgb(0,0,0)" stroke="none">16</tspan></tspan></tspan></text>
 <text class="TextShape"><tspan class="TextParagraph" font-family="Arial" font-size="353px" font-weight="400"><tspan class="TextPosition" x="11168" y="7797"><tspan fill="rgb(0,0,0)" stroke="none">17</tspan></tspan></tspan></text>
 <text class="TextShape"><tspan class="TextParagraph" font-family="Arial" font-size="353px" font-weight="400"><tspan class="TextPosition" x="11704" y="7797"><tspan fill="rgb(0,0,0)" stroke="none">18</tspan></tspan></tspan></text>
 <text class="TextShape"><tspan class="TextParagraph" font-family="Arial" font-size="353px" font-weight="400"><tspan class="TextPosition" x="12241" y="7797"><tspan fill="rgb(0,0,0)" stroke="none">19</tspan></tspan></tspan></text>
 <text class="TextShape"><tspan class="TextParagraph" font-family="Arial" font-size="353px" font-weight="400"><tspan class="TextPosition" x="12777" y="7797"><tspan fill="rgb(0,0,0)" stroke="none">20</tspan></tspan></tspan></text>
 <text class="TextShape"><tspan class="TextParagraph" font-family="Arial" font-size="353px" font-weight="400"><tspan class="TextPosition" x="13313" y="7797"><tspan fill="rgb(0,0,0)" stroke="none">21</tspan></tspan></tspan></text>
 <text class="TextShape"><tspan class="TextParagraph" font-family="Arial" font-size="353px" font-weight="400"><tspan class="TextPosition" x="13850" y="7797"><tspan fill="rgb(0,0,0)" stroke="none">22</tspan></tspan></tspan></text>
 <text class="TextShape"><tspan class="TextParagraph" font-family="Arial" font-size="353px" font-weight="400"><tspan class="TextPosition" x="14386" y="7797"><tspan fill="rgb(0,0,0)" stroke="none">23</tspan></tspan></tspan></text>
 <text class="TextShape"><tspan class="TextParagraph" font-family="Arial" font-size="353px" font-weight="400"><tspan class="TextPosition" x="14922" y="7797"><tspan fill="rgb(0,0,0)" stroke="none">24</tspan></tspan></tspan></text>
 <text class="TextShape"><tspan class="TextParagraph" font-family="Arial" font-size="353px" font-weight="400"><tspan class="TextPosition" x="1533" y="7350"><tspan fill="rgb(0,0,0)" stroke="none">0</tspan></tspan></tspan></text>
 <text class="TextShape"><tspan class="TextParagraph" font-family="Arial" font-size="353px" font-weight="400"><tspan class="TextPosition" x="1533" y="6582"><tspan fill="rgb(0,0,0)" stroke="none">2</tspan></tspan></tspan></text>
 <text class="TextShape"><tspan class="TextParagraph" font-family="Arial" font-size="353px" font-weight="400"><tspan class="TextPosition" x="1533" y="5815"><tspan fill="rgb(0,0,0)" stroke="none">4</tspan></tspan></tspan></text>
 <text class="TextShape"><tspan class="TextParagraph" font-family="Arial" font-size="353px" font-weight="400"><tspan class="TextPosition" x="1533" y="5048"><tspan fill="rgb(0,0,0)" stroke="none">6</tspan></tspan></tspan></text>
 <text class="TextShape"><tspan class="TextParagraph" font-family="Arial" font-size="353px" font-weight="400"><tspan class="TextPosition" x="1533" y="4281"><tspan fill="rgb(0,0,0)" stroke="none">8</tspan></tspan></tspan></text>
 <text class="TextShape"><tspan class="TextParagraph" font-family="Arial" font-size="353px" font-weight="400"><tspan class="TextPosition" x="1348" y="3513"><tspan fill="rgb(0,0,0)" stroke="none">10</tspan></tspan></tspan></text>
 <text class="TextShape"><tspan class="TextParagraph" font-family="Arial" font-size="353px" font-weight="400"><tspan class="TextPosition" x="1348" y="2746"><tspan fill="rgb(0,0,0)" stroke="none">12</tspan></tspan></tspan></text>
 <text class="TextShape"><tspan class="TextParagraph" font-family="Arial" font-size="353px" font-weight="400"><tspan class="TextPosition" x="1348" y="1979"><tspan fill="rgb(0,0,0)" stroke="none">14</tspan></tspan></tspan></text>
 <text class="TextShape"><tspan class="TextParagraph" font-family="Arial" font-size="353px" font-weight="400"><tspan class="TextPosition" x="1348" y="1212"><tspan fill="rgb(0,0,0)" stroke="none">16</tspan></tspan></tspan></text>
 <text class="TextShape"><tspan class="TextParagraph" font-family="Arial" font-size="318px" font-weight="400"><tspan class="TextPosition" x="7461" y="8444"><tspan fill="rgb(0,0,0)" stroke="none"># url marked</tspan></tspan></tspan></text>
 <text class="TextShape"><tspan class="TextParagraph" font-family="Arial" font-size="318px" font-weight="400"><tspan class="TextPosition" x="853" y="4914" transform="translate(853,4914) rotate(-90) translate(-853,-4914)"><tspan fill="rgb(0,0,0)" stroke="none"># users</tspan></tspan></tspan></text>
 <path fill="rgb(255,66,14)" stroke="none" d="M 13900,7229 L 14168,7229 14168,6845 13900,6845 13900,7229 Z"/>
</svg>