<?xml version="1.0" encoding="UTF-8"?>
<!DOCTYPE svg PUBLIC "-//W3C//DTD SVG 1.1//EN" "http://www.w3.org/Graphics/SVG/1.1/DTD/svg11.dtd">
<svg width="160mm" height="90mm" viewBox="0 0 16000 9000">
 <path fill="rgb(255,255,255)" stroke="none" d="M 8160,9038 L 160,9038 160,39 16159,39 16159,9038 8160,9038 Z"/>
 <path fill="none" stroke="rgb(179,179,179)" stroke-linejoin="round" d="M 8723,7230 L 1927,7230 1927,1093 15519,1093 15519,7230 8723,7230 Z"/>
 <path fill="none" stroke="rgb(179,179,179)" stroke-linejoin="round" d="M 15519,7229 L 1927,7229"/>
 <path fill="none" stroke="rgb(179,179,179)" stroke-linejoin="round" d="M 15519,6461 L 1927,6461"/>
 <path fill="none" stroke="rgb(179,179,179)" stroke-linejoin="round" d="M 15519,5694 L 1927,5694"/>
 <path fill="none" stroke="rgb(179,179,179)" stroke-linejoin="round" d="M 15519,4927 L 1927,4927"/>
 <path fill="none" stroke="rgb(179,179,179)" stroke-linejoin="round" d="M 15519,4161 L 1927,4161"/>
 <path fill="none" stroke="rgb(179,179,179)" stroke-linejoin="round" d="M 15519,3393 L 1927,3393"/>
 <path fill="none" stroke="rgb(179,179,179)" stroke-linejoin="round" d="M 15519,2626 L 1927,2626"/>
 <path fill="none" stroke="rgb(179,179,179)" stroke-linejoin="round" d="M 15519,1859 L 1927,1859"/>
 <path fill="none" stroke="rgb(179,179,179)" stroke-linejoin="round" d="M 15519,1092 L 1927,1092"/>
 <path fill="none" stroke="rgb(179,179,179)" stroke-linejoin="round" d="M 1927,7379 L 1927,7229"/>
 <path fill="none" stroke="rgb(179,179,179)" stroke-linejoin="round" d="M 1927,7379 L 1927,7229"/>
 <path fill="none" stroke="rgb(179,179,179)" stroke-linejoin="round" d="M 2726,7379 L 2726,7229"/>
 <path fill="none" stroke="rgb(179,179,179)" stroke-linejoin="round" d="M 2726,7379 L 2726,7229"/>
 <path fill="none" stroke="rgb(179,179,179)" stroke-linejoin="round" d="M 3526,7379 L 3526,7229"/>
 <path fill="none" stroke="rgb(179,179,179)" stroke-linejoin="round" d="M 3526,7379 L 3526,7229"/>
 <path fill="none" stroke="rgb(179,179,179)" stroke-linejoin="round" d="M 4325,7379 L 4325,7229"/>
 <path fill="none" stroke="rgb(179,179,179)" stroke-linejoin="round" d="M 4325,7379 L 4325,7229"/>
 <path fill="none" stroke="rgb(179,179,179)" stroke-linejoin="round" d="M 5125,7379 L 5125,7229"/>
 <path fill="none" stroke="rgb(179,179,179)" stroke-linejoin="round" d="M 5125,7379 L 5125,7229"/>
 <path fill="none" stroke="rgb(179,179,179)" stroke-linejoin="round" d="M 5924,7379 L 5924,7229"/>
 <path fill="none" stroke="rgb(179,179,179)" stroke-linejoin="round" d="M 5924,7379 L 5924,7229"/>
 <path fill="none" stroke="rgb(179,179,179)" stroke-linejoin="round" d="M 6724,7379 L 6724,7229"/>
 <path fill="none" stroke="rgb(179,179,179)" stroke-linejoin="round" d="M 6724,7379 L 6724,7229"/>
 <path fill="none" stroke="rgb(179,179,179)" stroke-linejoin="round" d="M 7524,7379 L 7524,7229"/>
 <path fill="none" stroke="rgb(179,179,179)" stroke-linejoin="round" d="M 7524,7379 L 7524,7229"/>
 <path fill="none" stroke="rgb(179,179,179)" stroke-linejoin="round" d="M 8322,7379 L 8322,7229"/>
 <path fill="none" stroke="rgb(179,179,179)" stroke-linejoin="round" d="M 8322,7379 L 8322,7229"/>
 <path fill="none" stroke="rgb(179,179,179)" stroke-linejoin="round" d="M 9122,7379 L 9122,7229"/>
 <path fill="none" stroke="rgb(179,179,179)" stroke-linejoin="round" d="M 9122,7379 L 9122,7229"/>
 <path fill="none" stroke="rgb(179,179,179)" stroke-linejoin="round" d="M 9921,7379 L 9921,7229"/>
 <path fill="none" stroke="rgb(179,179,179)" stroke-linejoin="round" d="M 9921,7379 L 9921,7229"/>
 <path fill="none" stroke="rgb(179,179,179)" stroke-linejoin="round" d="M 10721,7379 L 10721,7229"/>
 <path fill="none" stroke="rgb(179,179,179)" stroke-linejoin="round" d="M 10721,7379 L 10721,7229"/>
 <path fill="none" stroke="rgb(179,179,179)" stroke-linejoin="round" d="M 11521,7379 L 11521,7229"/>
 <path fill="none" stroke="rgb(179,179,179)" stroke-linejoin="round" d="M 11521,7379 L 11521,7229"/>
 <path fill="none" stroke="rgb(179,179,179)" stroke-linejoin="round" d="M 12320,7379 L 12320,7229"/>
 <path fill="none" stroke="rgb(179,179,179)" stroke-linejoin="round" d="M 12320,7379 L 12320,7229"/>
 <path fill="none" stroke="rgb(179,179,179)" stroke-linejoin="round" d="M 13120,7379 L 13120,7229"/>
 <path fill="none" stroke="rgb(179,179,179)" stroke-linejoin="round" d="M 13120,7379 L 13120,7229"/>
 <path fill="none" stroke="rgb(179,179,179)" stroke-linejoin="round" d="M 13919,7379 L 13919,7229"/>
 <path fill="none" stroke="rgb(179,179,179)" stroke-linejoin="round" d="M 13919,7379 L 13919,7229"/>
 <path fill="none" stroke="rgb(179,179,179)" stroke-linejoin="round" d="M 14719,7379 L 14719,7229"/>
 <path fill="none" stroke="rgb(179,179,179)" stroke-linejoin="round" d="M 14719,7379 L 14719,7229"/>
 <path fill="none" stroke="rgb(179,179,179)" stroke-linejoin="round" d="M 15519,7379 L 15519,7229"/>
 <path fill="none" stroke="rgb(179,179,179)" stroke-linejoin="round" d="M 15519,7379 L 15519,7229"/>
 <path fill="none" stroke="rgb(179,179,179)" stroke-linejoin="round" d="M 1927,7229 L 15519,7229"/>
 <path fill="none" stroke="rgb(179,179,179)" stroke-linejoin="round" d="M 1777,7229 L 1927,7229"/>
 <path fill="none" stroke="rgb(179,179,179)" stroke-linejoin="round" d="M 1777,7229 L 1927,7229"/>
 <path fill="none" stroke="rgb(179,179,179)" stroke-linejoin="round" d="M 1777,6461 L 1927,6461"/>
 <path fill="none" stroke="rgb(179,179,179)" stroke-linejoin="round" d="M 1777,6461 L 1927,6461"/>
 <path fill="none" stroke="rgb(179,179,179)" stroke-linejoin="round" d="M 1777,5694 L 1927,5694"/>
 <path fill="none" stroke="rgb(179,179,179)" stroke-linejoin="round" d="M 1777,5694 L 1927,5694"/>
 <path fill="none" stroke="rgb(179,179,179)" stroke-linejoin="round" d="M 1777,4927 L 1927,4927"/>
 <path fill="none" stroke="rgb(179,179,179)" stroke-linejoin="round" d="M 1777,4927 L 1927,4927"/>
 <path fill="none" stroke="rgb(179,179,179)" stroke-linejoin="round" d="M 1777,4161 L 1927,4161"/>
 <path fill="none" stroke="rgb(179,179,179)" stroke-linejoin="round" d="M 1777,4161 L 1927,4161"/>
 <path fill="none" stroke="rgb(179,179,179)" stroke-linejoin="round" d="M 1777,3393 L 1927,3393"/>
 <path fill="none" stroke="rgb(179,179,179)" stroke-linejoin="round" d="M 1777,3393 L 1927,3393"/>
 <path fill="none" stroke="rgb(179,179,179)" stroke-linejoin="round" d="M 1777,2626 L 1927,2626"/>
 <path fill="none" stroke="rgb(179,179,179)" stroke-linejoin="round" d="M 1777,2626 L 1927,2626"/>
 <path fill="none" stroke="rgb(179,179,179)" stroke-linejoin="round" d="M 1777,1859 L 1927,1859"/>
 <path fill="none" stroke="rgb(179,179,179)" stroke-linejoin="round" d="M 1777,1859 L 1927,1859"/>
 <path fill="none" stroke="rgb(179,179,179)" stroke-linejoin="round" d="M 1777,1092 L 1927,1092"/>
 <path fill="none" stroke="rgb(179,179,179)" stroke-linejoin="round" d="M 1777,1092 L 1927,1092"/>
 <path fill="none" stroke="rgb(179,179,179)" stroke-linejoin="round" d="M 1927,7229 L 1927,1092"/>
 <path fill="rgb(0,69,134)" stroke="none" d="M 14919,7229 L 15319,7229 15319,4927 14919,4927 14919,7229 Z"/>
 <path fill="rgb(0,69,134)" stroke="none" d="M 14119,7229 L 14519,7229 14519,1859 14119,1859 14119,7229 Z"/>
 <path fill="rgb(0,69,134)" stroke="none" d="M 13320,7229 L 13719,7229 13719,6461 13320,6461 13320,7229 Z"/>
 <path fill="rgb(0,69,134)" stroke="none" d="M 12520,7229 L 12920,7229 12920,6461 12520,6461 12520,7229 Z"/>
 <path fill="rgb(0,69,134)" stroke="none" d="M 11720,7229 L 12120,7229 12120,6461 11720,6461 11720,7229 Z"/>
 <path fill="rgb(0,69,134)" stroke="none" d="M 10921,7229 L 11321,7229 11321,6461 10921,6461 10921,7229 Z"/>
 <path fill="rgb(0,69,134)" stroke="none" d="M 6924,7229 L 7324,7229 7324,6461 6924,6461 6924,7229 Z"/>
 <path fill="rgb(0,69,134)" stroke="none" d="M 6124,7229 L 6524,7229 6524,6461 6124,6461 6124,7229 Z"/>
 <text class="TextShape"><tspan class="TextParagraph" font-family="Arial" font-size="353px" font-weight="400"><tspan class="TextPosition" x="2233" y="7797"><tspan fill="rgb(0,0,0)" stroke="none">0</tspan></tspan></tspan></text>
 <text class="TextShape"><tspan class="TextParagraph" font-family="Arial" font-size="353px" font-weight="400"><tspan class="TextPosition" x="3033" y="7797"><tspan fill="rgb(0,0,0)" stroke="none">1</tspan></tspan></tspan></text>
 <text class="TextShape"><tspan class="TextParagraph" font-family="Arial" font-size="353px" font-weight="400"><tspan class="TextPosition" x="3832" y="7797"><tspan fill="rgb(0,0,0)" stroke="none">2</tspan></tspan></tspan></text>
 <text class="TextShape"><tspan class="TextParagraph" font-family="Arial" font-size="353px" font-weight="400"><tspan class="TextPosition" x="4632" y="7797"><tspan fill="rgb(0,0,0)" stroke="none">3</tspan></tspan></tspan></text>
 <text class="TextShape"><tspan class="TextParagraph" font-family="Arial" font-size="353px" font-weight="400"><tspan class="TextPosition" x="5432" y="7797"><tspan fill="rgb(0,0,0)" stroke="none">4</tspan></tspan></tspan></text>
 <text class="TextShape"><tspan class="TextParagraph" font-family="Arial" font-size="353px" font-weight="400"><tspan class="TextPosition" x="6231" y="7797"><tspan fill="rgb(0,0,0)" stroke="none">5</tspan></tspan></tspan></text>
 <text class="TextShape"><tspan class="TextParagraph" font-family="Arial" font-size="353px" font-weight="400"><tspan class="TextPosition" x="7031" y="7797"><tspan fill="rgb(0,0,0)" stroke="none">6</tspan></tspan></tspan></text>
 <text class="TextShape"><tspan class="TextParagraph" font-family="Arial" font-size="353px" font-weight="400"><tspan class="TextPosition" x="7830" y="7797"><tspan fill="rgb(0,0,0)" stroke="none">7</tspan></tspan></tspan></text>
 <text class="TextShape"><tspan class="TextParagraph" font-family="Arial" font-size="353px" font-weight="400"><tspan class="TextPosition" x="8630" y="7797"><tspan fill="rgb(0,0,0)" stroke="none">8</tspan></tspan></tspan></text>
 <text class="TextShape"><tspan class="TextParagraph" font-family="Arial" font-size="353px" font-weight="400"><tspan class="TextPosition" x="9430" y="7797"><tspan fill="rgb(0,0,0)" stroke="none">9</tspan></tspan></tspan></text>
 <text class="TextShape"><tspan class="TextParagraph" font-family="Arial" font-size="353px" font-weight="400"><tspan class="TextPosition" x="10137" y="7797"><tspan fill="rgb(0,0,0)" stroke="none">10</tspan></tspan></tspan></text>
 <text class="TextShape"><tspan class="TextParagraph" font-family="Arial" font-size="353px" font-weight="400"><tspan class="TextPosition" x="10937" y="7797"><tspan fill="rgb(0,0,0)" stroke="none">11</tspan></tspan></tspan></text>
 <text class="TextShape"><tspan class="TextParagraph" font-family="Arial" font-size="353px" font-weight="400"><tspan class="TextPosition" x="11736" y="7797"><tspan fill="rgb(0,0,0)" stroke="none">12</tspan></tspan></tspan></text>
 <text class="TextShape"><tspan class="TextParagraph" font-family="Arial" font-size="353px" font-weight="400"><tspan class="TextPosition" x="12536" y="7797"><tspan fill="rgb(0,0,0)" stroke="none">13</tspan></tspan></tspan></text>
 <text class="TextShape"><tspan class="TextParagraph" font-family="Arial" font-size="353px" font-weight="400"><tspan class="TextPosition" x="13336" y="7797"><tspan fill="rgb(0,0,0)" stroke="none">14</tspan></tspan></tspan></text>
 <text class="TextShape"><tspan class="TextParagraph" font-family="Arial" font-size="353px" font-weight="400"><tspan class="TextPosition" x="14135" y="7797"><tspan fill="rgb(0,0,0)" stroke="none">15</tspan></tspan></tspan></text>
 <text class="TextShape"><tspan class="TextParagraph" font-family="Arial" font-size="353px" font-weight="400"><tspan class="TextPosition" x="14935" y="7797"><tspan fill="rgb(0,0,0)" stroke="none">16</tspan></tspan></tspan></text>
 <text class="TextShape"><tspan class="TextParagraph" font-family="Arial" font-size="353px" font-weight="400"><tspan class="TextPosition" x="1492" y="7350"><tspan fill="rgb(0,0,0)" stroke="none">0</tspan></tspan></tspan></text>
 <text class="TextShape"><tspan class="TextParagraph" font-family="Arial" font-size="353px" font-weight="400"><tspan class="TextPosition" x="1492" y="6582"><tspan fill="rgb(0,0,0)" stroke="none">1</tspan></tspan></tspan></text>
 <text class="TextShape"><tspan class="TextParagraph" font-family="Arial" font-size="353px" font-weight="400"><tspan class="TextPosition" x="1492" y="5815"><tspan fill="rgb(0,0,0)" stroke="none">2</tspan></tspan></tspan></text>
 <text class="TextShape"><tspan class="TextParagraph" font-family="Arial" font-size="353px" font-weight="400"><tspan class="TextPosition" x="1492" y="5048"><tspan fill="rgb(0,0,0)" stroke="none">3</tspan></tspan></tspan></text>
 <text class="TextShape"><tspan class="TextParagraph" font-family="Arial" font-size="353px" font-weight="400"><tspan class="TextPosition" x="1492" y="4281"><tspan fill="rgb(0,0,0)" stroke="none">4</tspan></tspan></tspan></text>
 <text class="TextShape"><tspan class="TextParagraph" font-family="Arial" font-size="353px" font-weight="400"><tspan class="TextPosition" x="1492" y="3513"><tspan fill="rgb(0,0,0)" stroke="none">5</tspan></tspan></tspan></text>
 <text class="TextShape"><tspan class="TextParagraph" font-family="Arial" font-size="353px" font-weight="400"><tspan class="TextPosition" x="1492" y="2746"><tspan fill="rgb(0,0,0)" stroke="none">6</tspan></tspan></tspan></text>
 <text class="TextShape"><tspan class="TextParagraph" font-family="Arial" font-size="353px" font-weight="400"><tspan class="TextPosition" x="1492" y="1979"><tspan fill="rgb(0,0,0)" stroke="none">7</tspan></tspan></tspan></text>
 <text class="TextShape"><tspan class="TextParagraph" font-family="Arial" font-size="353px" font-weight="400"><tspan class="TextPosition" x="1492" y="1212"><tspan fill="rgb(0,0,0)" stroke="none">8</tspan></tspan></tspan></text>
 <text class="TextShape"><tspan class="TextParagraph" font-family="Arial" font-size="318px" font-weight="400"><tspan class="TextPosition" x="7605" y="8444"><tspan fill="rgb(0,0,0)" stroke="none"># url marked</tspan></tspan></tspan></text>
 <text class="TextShape"><tspan class="TextParagraph" font-family="Arial" font-size="318px" font-weight="400"><tspan class="TextPosition" x="997" y="4914" transform="translate(997,4914) rotate(-90) translate(-997,-4914)"><tspan fill="rgb(0,0,0)" stroke="none"># users</tspan></tspan></tspan></text>
 <path fill="rgb(0,69,134)" stroke="none" d="M 2926,7229 L 3326,7229 3326,6461 2926,6461 2926,7229 Z"/>
</svg>