<?xml version="1.0" encoding="UTF-8"?>
<!DOCTYPE svg PUBLIC "-//W3C//DTD SVG 1.1//EN" "http://www.w3.org/Graphics/SVG/1.1/DTD/svg11.dtd">
<svg width="160mm" height="90mm" viewBox="0 0 16000 9000">
 <path fill="rgb(255,255,255)" stroke="none" d="M 8160,8974 L 160,8974 160,-25 16159,-25 16159,8974 8160,8974 Z"/>
 <path fill="none" stroke="rgb(179,179,179)" stroke-linejoin="round" d="M 8868,7166 L 2218,7166 2218,1029 15519,1029 15519,7166 8868,7166 Z"/>
 <path fill="none" stroke="rgb(179,179,179)" stroke-linejoin="round" d="M 15519,7165 L 2218,7165"/>
 <path fill="none" stroke="rgb(179,179,179)" stroke-linejoin="round" d="M 15519,6483 L 2218,6483"/>
 <path fill="none" stroke="rgb(179,179,179)" stroke-linejoin="round" d="M 15519,5801 L 2218,5801"/>
 <path fill="none" stroke="rgb(179,179,179)" stroke-linejoin="round" d="M 15519,5119 L 2218,5119"/>
 <path fill="none" stroke="rgb(179,179,179)" stroke-linejoin="round" d="M 15519,4438 L 2218,4438"/>
 <path fill="none" stroke="rgb(179,179,179)" stroke-linejoin="round" d="M 15519,3756 L 2218,3756"/>
 <path fill="none" stroke="rgb(179,179,179)" stroke-linejoin="round" d="M 15519,3074 L 2218,3074"/>
 <path fill="none" stroke="rgb(179,179,179)" stroke-linejoin="round" d="M 15519,2392 L 2218,2392"/>
 <path fill="none" stroke="rgb(179,179,179)" stroke-linejoin="round" d="M 15519,1710 L 2218,1710"/>
 <path fill="none" stroke="rgb(179,179,179)" stroke-linejoin="round" d="M 15519,1028 L 2218,1028"/>
 <path fill="none" stroke="rgb(179,179,179)" stroke-linejoin="round" d="M 2218,7315 L 2218,7165"/>
 <path fill="none" stroke="rgb(179,179,179)" stroke-linejoin="round" d="M 2218,7315 L 2218,7165"/>
 <path fill="none" stroke="rgb(179,179,179)" stroke-linejoin="round" d="M 3000,7315 L 3000,7165"/>
 <path fill="none" stroke="rgb(179,179,179)" stroke-linejoin="round" d="M 3000,7315 L 3000,7165"/>
 <path fill="none" stroke="rgb(179,179,179)" stroke-linejoin="round" d="M 3782,7315 L 3782,7165"/>
 <path fill="none" stroke="rgb(179,179,179)" stroke-linejoin="round" d="M 3782,7315 L 3782,7165"/>
 <path fill="none" stroke="rgb(179,179,179)" stroke-linejoin="round" d="M 4565,7315 L 4565,7165"/>
 <path fill="none" stroke="rgb(179,179,179)" stroke-linejoin="round" d="M 4565,7315 L 4565,7165"/>
 <path fill="none" stroke="rgb(179,179,179)" stroke-linejoin="round" d="M 5347,7315 L 5347,7165"/>
 <path fill="none" stroke="rgb(179,179,179)" stroke-linejoin="round" d="M 5347,7315 L 5347,7165"/>
 <path fill="none" stroke="rgb(179,179,179)" stroke-linejoin="round" d="M 6130,7315 L 6130,7165"/>
 <path fill="none" stroke="rgb(179,179,179)" stroke-linejoin="round" d="M 6130,7315 L 6130,7165"/>
 <path fill="none" stroke="rgb(179,179,179)" stroke-linejoin="round" d="M 6912,7315 L 6912,7165"/>
 <path fill="none" stroke="rgb(179,179,179)" stroke-linejoin="round" d="M 6912,7315 L 6912,7165"/>
 <path fill="none" stroke="rgb(179,179,179)" stroke-linejoin="round" d="M 7695,7315 L 7695,7165"/>
 <path fill="none" stroke="rgb(179,179,179)" stroke-linejoin="round" d="M 7695,7315 L 7695,7165"/>
 <path fill="none" stroke="rgb(179,179,179)" stroke-linejoin="round" d="M 8476,7315 L 8476,7165"/>
 <path fill="none" stroke="rgb(179,179,179)" stroke-linejoin="round" d="M 8476,7315 L 8476,7165"/>
 <path fill="none" stroke="rgb(179,179,179)" stroke-linejoin="round" d="M 9259,7315 L 9259,7165"/>
 <path fill="none" stroke="rgb(179,179,179)" stroke-linejoin="round" d="M 9259,7315 L 9259,7165"/>
 <path fill="none" stroke="rgb(179,179,179)" stroke-linejoin="round" d="M 10041,7315 L 10041,7165"/>
 <path fill="none" stroke="rgb(179,179,179)" stroke-linejoin="round" d="M 10041,7315 L 10041,7165"/>
 <path fill="none" stroke="rgb(179,179,179)" stroke-linejoin="round" d="M 10824,7315 L 10824,7165"/>
 <path fill="none" stroke="rgb(179,179,179)" stroke-linejoin="round" d="M 10824,7315 L 10824,7165"/>
 <path fill="none" stroke="rgb(179,179,179)" stroke-linejoin="round" d="M 11606,7315 L 11606,7165"/>
 <path fill="none" stroke="rgb(179,179,179)" stroke-linejoin="round" d="M 11606,7315 L 11606,7165"/>
 <path fill="none" stroke="rgb(179,179,179)" stroke-linejoin="round" d="M 12389,7315 L 12389,7165"/>
 <path fill="none" stroke="rgb(179,179,179)" stroke-linejoin="round" d="M 12389,7315 L 12389,7165"/>
 <path fill="none" stroke="rgb(179,179,179)" stroke-linejoin="round" d="M 13171,7315 L 13171,7165"/>
 <path fill="none" stroke="rgb(179,179,179)" stroke-linejoin="round" d="M 13171,7315 L 13171,7165"/>
 <path fill="none" stroke="rgb(179,179,179)" stroke-linejoin="round" d="M 13954,7315 L 13954,7165"/>
 <path fill="none" stroke="rgb(179,179,179)" stroke-linejoin="round" d="M 13954,7315 L 13954,7165"/>
 <path fill="none" stroke="rgb(179,179,179)" stroke-linejoin="round" d="M 14736,7315 L 14736,7165"/>
 <path fill="none" stroke="rgb(179,179,179)" stroke-linejoin="round" d="M 14736,7315 L 14736,7165"/>
 <path fill="none" stroke="rgb(179,179,179)" stroke-linejoin="round" d="M 15519,7315 L 15519,7165"/>
 <path fill="none" stroke="rgb(179,179,179)" stroke-linejoin="round" d="M 15519,7315 L 15519,7165"/>
 <path fill="none" stroke="rgb(179,179,179)" stroke-linejoin="round" d="M 2218,7165 L 15519,7165"/>
 <path fill="none" stroke="rgb(179,179,179)" stroke-linejoin="round" d="M 2068,7165 L 2218,7165"/>
 <path fill="none" stroke="rgb(179,179,179)" stroke-linejoin="round" d="M 2068,7165 L 2218,7165"/>
 <path fill="none" stroke="rgb(179,179,179)" stroke-linejoin="round" d="M 2068,6483 L 2218,6483"/>
 <path fill="none" stroke="rgb(179,179,179)" stroke-linejoin="round" d="M 2068,6483 L 2218,6483"/>
 <path fill="none" stroke="rgb(179,179,179)" stroke-linejoin="round" d="M 2068,5801 L 2218,5801"/>
 <path fill="none" stroke="rgb(179,179,179)" stroke-linejoin="round" d="M 2068,5801 L 2218,5801"/>
 <path fill="none" stroke="rgb(179,179,179)" stroke-linejoin="round" d="M 2068,5119 L 2218,5119"/>
 <path fill="none" stroke="rgb(179,179,179)" stroke-linejoin="round" d="M 2068,5119 L 2218,5119"/>
 <path fill="none" stroke="rgb(179,179,179)" stroke-linejoin="round" d="M 2068,4438 L 2218,4438"/>
 <path fill="none" stroke="rgb(179,179,179)" stroke-linejoin="round" d="M 2068,4438 L 2218,4438"/>
 <path fill="none" stroke="rgb(179,179,179)" stroke-linejoin="round" d="M 2068,3756 L 2218,3756"/>
 <path fill="none" stroke="rgb(179,179,179)" stroke-linejoin="round" d="M 2068,3756 L 2218,3756"/>
 <path fill="none" stroke="rgb(179,179,179)" stroke-linejoin="round" d="M 2068,3074 L 2218,3074"/>
 <path fill="none" stroke="rgb(179,179,179)" stroke-linejoin="round" d="M 2068,3074 L 2218,3074"/>
 <path fill="none" stroke="rgb(179,179,179)" stroke-linejoin="round" d="M 2068,2392 L 2218,2392"/>
 <path fill="none" stroke="rgb(179,179,179)" stroke-linejoin="round" d="M 2068,2392 L 2218,2392"/>
 <path fill="none" stroke="rgb(179,179,179)" stroke-linejoin="round" d="M 2068,1710 L 2218,1710"/>
 <path fill="none" stroke="rgb(179,179,179)" stroke-linejoin="round" d="M 2068,1710 L 2218,1710"/>
 <path fill="none" stroke="rgb(179,179,179)" stroke-linejoin="round" d="M 2068,1028 L 2218,1028"/>
 <path fill="none" stroke="rgb(179,179,179)" stroke-linejoin="round" d="M 2068,1028 L 2218,1028"/>
 <path fill="none" stroke="rgb(179,179,179)" stroke-linejoin="round" d="M 2218,7165 L 2218,1028"/>
 <path fill="rgb(0,69,134)" stroke="none" d="M 7890,7165 L 8281,7165 8281,5801 7890,5801 7890,7165 Z"/>
 <path fill="rgb(0,69,134)" stroke="none" d="M 7108,7165 L 7499,7165 7499,3074 7108,3074 7108,7165 Z"/>
 <path fill="rgb(0,69,134)" stroke="none" d="M 6325,7165 L 6717,7165 6717,5801 6325,5801 6325,7165 Z"/>
 <path fill="rgb(0,69,134)" stroke="none" d="M 5543,7165 L 5934,7165 5934,3074 5543,3074 5543,7165 Z"/>
 <path fill="rgb(0,69,134)" stroke="none" d="M 4761,7165 L 5152,7165 5152,1710 4761,1710 4761,7165 Z"/>
 <path fill="rgb(0,69,134)" stroke="none" d="M 3978,7165 L 4369,7165 4369,4438 3978,4438 3978,7165 Z"/>
 <path fill="rgb(0,69,134)" stroke="none" d="M 3196,7165 L 3587,7165 3587,5801 3196,5801 3196,7165 Z"/>
 <text class="TextShape"><tspan class="TextParagraph" font-family="Arial" font-size="353px" font-weight="400"><tspan class="TextPosition" x="2516" y="7733"><tspan fill="rgb(0,0,0)" stroke="none">0</tspan></tspan></tspan></text>
 <text class="TextShape"><tspan class="TextParagraph" font-family="Arial" font-size="353px" font-weight="400"><tspan class="TextPosition" x="3298" y="7733"><tspan fill="rgb(0,0,0)" stroke="none">1</tspan></tspan></tspan></text>
 <text class="TextShape"><tspan class="TextParagraph" font-family="Arial" font-size="353px" font-weight="400"><tspan class="TextPosition" x="4081" y="7733"><tspan fill="rgb(0,0,0)" stroke="none">2</tspan></tspan></tspan></text>
 <text class="TextShape"><tspan class="TextParagraph" font-family="Arial" font-size="353px" font-weight="400"><tspan class="TextPosition" x="4863" y="7733"><tspan fill="rgb(0,0,0)" stroke="none">3</tspan></tspan></tspan></text>
 <text class="TextShape"><tspan class="TextParagraph" font-family="Arial" font-size="353px" font-weight="400"><tspan class="TextPosition" x="5646" y="7733"><tspan fill="rgb(0,0,0)" stroke="none">4</tspan></tspan></tspan></text>
 <text class="TextShape"><tspan class="TextParagraph" font-family="Arial" font-size="353px" font-weight="400"><tspan class="TextPosition" x="6428" y="7733"><tspan fill="rgb(0,0,0)" stroke="none">5</tspan></tspan></tspan></text>
 <text class="TextShape"><tspan class="TextParagraph" font-family="Arial" font-size="353px" font-weight="400"><tspan class="TextPosition" x="7211" y="7733"><tspan fill="rgb(0,0,0)" stroke="none">6</tspan></tspan></tspan></text>
 <text class="TextShape"><tspan class="TextParagraph" font-family="Arial" font-size="353px" font-weight="400"><tspan class="TextPosition" x="7993" y="7733"><tspan fill="rgb(0,0,0)" stroke="none">7</tspan></tspan></tspan></text>
 <text class="TextShape"><tspan class="TextParagraph" font-family="Arial" font-size="353px" font-weight="400"><tspan class="TextPosition" x="8776" y="7733"><tspan fill="rgb(0,0,0)" stroke="none">8</tspan></tspan></tspan></text>
 <text class="TextShape"><tspan class="TextParagraph" font-family="Arial" font-size="353px" font-weight="400"><tspan class="TextPosition" x="9558" y="7733"><tspan fill="rgb(0,0,0)" stroke="none">9</tspan></tspan></tspan></text>
 <text class="TextShape"><tspan class="TextParagraph" font-family="Arial" font-size="353px" font-weight="400"><tspan class="TextPosition" x="10248" y="7733"><tspan fill="rgb(0,0,0)" stroke="none">10</tspan></tspan></tspan></text>
 <text class="TextShape"><tspan class="TextParagraph" font-family="Arial" font-size="353px" font-weight="400"><tspan class="TextPosition" x="11031" y="7733"><tspan fill="rgb(0,0,0)" stroke="none">11</tspan></tspan></tspan></text>
 <text class="TextShape"><tspan class="TextParagraph" font-family="Arial" font-size="353px" font-weight="400"><tspan class="TextPosition" x="11813" y="7733"><tspan fill="rgb(0,0,0)" stroke="none">12</tspan></tspan></tspan></text>
 <text class="TextShape"><tspan class="TextParagraph" font-family="Arial" font-size="353px" font-weight="400"><tspan class="TextPosition" x="12596" y="7733"><tspan fill="rgb(0,0,0)" stroke="none">13</tspan></tspan></tspan></text>
 <text class="TextShape"><tspan class="TextParagraph" font-family="Arial" font-size="353px" font-weight="400"><tspan class="TextPosition" x="13378" y="7733"><tspan fill="rgb(0,0,0)" stroke="none">14</tspan></tspan></tspan></text>
 <text class="TextShape"><tspan class="TextParagraph" font-family="Arial" font-size="353px" font-weight="400"><tspan class="TextPosition" x="14161" y="7733"><tspan fill="rgb(0,0,0)" stroke="none">15</tspan></tspan></tspan></text>
 <text class="TextShape"><tspan class="TextParagraph" font-family="Arial" font-size="353px" font-weight="400"><tspan class="TextPosition" x="14943" y="7733"><tspan fill="rgb(0,0,0)" stroke="none">16</tspan></tspan></tspan></text>
 <text class="TextShape"><tspan class="TextParagraph" font-family="Arial" font-size="353px" font-weight="400"><tspan class="TextPosition" x="1783" y="7286"><tspan fill="rgb(0,0,0)" stroke="none">0</tspan></tspan></tspan></text>
 <text class="TextShape"><tspan class="TextParagraph" font-family="Arial" font-size="353px" font-weight="400"><tspan class="TextPosition" x="1492" y="6604"><tspan fill="rgb(0,0,0)" stroke="none">0,5</tspan></tspan></tspan></text>
 <text class="TextShape"><tspan class="TextParagraph" font-family="Arial" font-size="353px" font-weight="400"><tspan class="TextPosition" x="1783" y="5922"><tspan fill="rgb(0,0,0)" stroke="none">1</tspan></tspan></tspan></text>
 <text class="TextShape"><tspan class="TextParagraph" font-family="Arial" font-size="353px" font-weight="400"><tspan class="TextPosition" x="1492" y="5240"><tspan fill="rgb(0,0,0)" stroke="none">1,5</tspan></tspan></tspan></text>
 <text class="TextShape"><tspan class="TextParagraph" font-family="Arial" font-size="353px" font-weight="400"><tspan class="TextPosition" x="1783" y="4558"><tspan fill="rgb(0,0,0)" stroke="none">2</tspan></tspan></tspan></text>
 <text class="TextShape"><tspan class="TextParagraph" font-family="Arial" font-size="353px" font-weight="400"><tspan class="TextPosition" x="1492" y="3876"><tspan fill="rgb(0,0,0)" stroke="none">2,5</tspan></tspan></tspan></text>
 <text class="TextShape"><tspan class="TextParagraph" font-family="Arial" font-size="353px" font-weight="400"><tspan class="TextPosition" x="1783" y="3194"><tspan fill="rgb(0,0,0)" stroke="none">3</tspan></tspan></tspan></text>
 <text class="TextShape"><tspan class="TextParagraph" font-family="Arial" font-size="353px" font-weight="400"><tspan class="TextPosition" x="1492" y="2512"><tspan fill="rgb(0,0,0)" stroke="none">3,5</tspan></tspan></tspan></text>
 <text class="TextShape"><tspan class="TextParagraph" font-family="Arial" font-size="353px" font-weight="400"><tspan class="TextPosition" x="1783" y="1830"><tspan fill="rgb(0,0,0)" stroke="none">4</tspan></tspan></tspan></text>
 <text class="TextShape"><tspan class="TextParagraph" font-family="Arial" font-size="353px" font-weight="400"><tspan class="TextPosition" x="1492" y="1148"><tspan fill="rgb(0,0,0)" stroke="none">4,5</tspan></tspan></tspan></text>
 <text class="TextShape"><tspan class="TextParagraph" font-family="Arial" font-size="318px" font-weight="400"><tspan class="TextPosition" x="7248" y="8380"><tspan fill="rgb(0,0,0)" stroke="none"># domain marked</tspan></tspan></tspan></text>
 <text class="TextShape"><tspan class="TextParagraph" font-family="Arial" font-size="318px" font-weight="400"><tspan class="TextPosition" x="997" y="4850" transform="translate(997,4850) rotate(-90) translate(-997,-4850)"><tspan fill="rgb(0,0,0)" stroke="none"># users</tspan></tspan></tspan></text>
 <path fill="rgb(0,69,134)" stroke="none" d="M 2413,7165 L 2804,7165 2804,4438 2413,4438 2413,7165 Z"/>
</svg>