<?xml version="1.0" encoding="UTF-8"?>
<!DOCTYPE svg PUBLIC "-//W3C//DTD SVG 1.1//EN" "http://www.w3.org/Graphics/SVG/1.1/DTD/svg11.dtd">
<svg width="160mm" height="90mm" viewBox="0 0 16000 9000">
 <path fill="rgb(255,255,255)" stroke="none" d="M 8016,8970 L 16,8970 16,-29 16015,-29 16015,8970 8016,8970 Z"/>
 <path fill="none" stroke="rgb(179,179,179)" stroke-linejoin="round" d="M 8724,7162 L 2074,7162 2074,1025 15375,1025 15375,7162 8724,7162 Z"/>
 <path fill="none" stroke="rgb(179,179,179)" stroke-linejoin="round" d="M 15375,7161 L 2074,7161"/>
 <path fill="none" stroke="rgb(179,179,179)" stroke-linejoin="round" d="M 15375,6284 L 2074,6284"/>
 <path fill="none" stroke="rgb(179,179,179)" stroke-linejoin="round" d="M 15375,5407 L 2074,5407"/>
 <path fill="none" stroke="rgb(179,179,179)" stroke-linejoin="round" d="M 15375,4530 L 2074,4530"/>
 <path fill="none" stroke="rgb(179,179,179)" stroke-linejoin="round" d="M 15375,3654 L 2074,3654"/>
 <path fill="none" stroke="rgb(179,179,179)" stroke-linejoin="round" d="M 15375,2777 L 2074,2777"/>
 <path fill="none" stroke="rgb(179,179,179)" stroke-linejoin="round" d="M 15375,1900 L 2074,1900"/>
 <path fill="none" stroke="rgb(179,179,179)" stroke-linejoin="round" d="M 15375,1024 L 2074,1024"/>
 <path fill="none" stroke="rgb(179,179,179)" stroke-linejoin="round" d="M 2074,7311 L 2074,7161"/>
 <path fill="none" stroke="rgb(179,179,179)" stroke-linejoin="round" d="M 2074,7311 L 2074,7161"/>
 <path fill="none" stroke="rgb(179,179,179)" stroke-linejoin="round" d="M 2606,7311 L 2606,7161"/>
 <path fill="none" stroke="rgb(179,179,179)" stroke-linejoin="round" d="M 2606,7311 L 2606,7161"/>
 <path fill="none" stroke="rgb(179,179,179)" stroke-linejoin="round" d="M 3138,7311 L 3138,7161"/>
 <path fill="none" stroke="rgb(179,179,179)" stroke-linejoin="round" d="M 3138,7311 L 3138,7161"/>
 <path fill="none" stroke="rgb(179,179,179)" stroke-linejoin="round" d="M 3670,7311 L 3670,7161"/>
 <path fill="none" stroke="rgb(179,179,179)" stroke-linejoin="round" d="M 3670,7311 L 3670,7161"/>
 <path fill="none" stroke="rgb(179,179,179)" stroke-linejoin="round" d="M 4202,7311 L 4202,7161"/>
 <path fill="none" stroke="rgb(179,179,179)" stroke-linejoin="round" d="M 4202,7311 L 4202,7161"/>
 <path fill="none" stroke="rgb(179,179,179)" stroke-linejoin="round" d="M 4734,7311 L 4734,7161"/>
 <path fill="none" stroke="rgb(179,179,179)" stroke-linejoin="round" d="M 4734,7311 L 4734,7161"/>
 <path fill="none" stroke="rgb(179,179,179)" stroke-linejoin="round" d="M 5266,7311 L 5266,7161"/>
 <path fill="none" stroke="rgb(179,179,179)" stroke-linejoin="round" d="M 5266,7311 L 5266,7161"/>
 <path fill="none" stroke="rgb(179,179,179)" stroke-linejoin="round" d="M 5798,7311 L 5798,7161"/>
 <path fill="none" stroke="rgb(179,179,179)" stroke-linejoin="round" d="M 5798,7311 L 5798,7161"/>
 <path fill="none" stroke="rgb(179,179,179)" stroke-linejoin="round" d="M 6330,7311 L 6330,7161"/>
 <path fill="none" stroke="rgb(179,179,179)" stroke-linejoin="round" d="M 6330,7311 L 6330,7161"/>
 <path fill="none" stroke="rgb(179,179,179)" stroke-linejoin="round" d="M 6862,7311 L 6862,7161"/>
 <path fill="none" stroke="rgb(179,179,179)" stroke-linejoin="round" d="M 6862,7311 L 6862,7161"/>
 <path fill="none" stroke="rgb(179,179,179)" stroke-linejoin="round" d="M 7394,7311 L 7394,7161"/>
 <path fill="none" stroke="rgb(179,179,179)" stroke-linejoin="round" d="M 7394,7311 L 7394,7161"/>
 <path fill="none" stroke="rgb(179,179,179)" stroke-linejoin="round" d="M 7926,7311 L 7926,7161"/>
 <path fill="none" stroke="rgb(179,179,179)" stroke-linejoin="round" d="M 7926,7311 L 7926,7161"/>
 <path fill="none" stroke="rgb(179,179,179)" stroke-linejoin="round" d="M 8457,7311 L 8457,7161"/>
 <path fill="none" stroke="rgb(179,179,179)" stroke-linejoin="round" d="M 8457,7311 L 8457,7161"/>
 <path fill="none" stroke="rgb(179,179,179)" stroke-linejoin="round" d="M 8990,7311 L 8990,7161"/>
 <path fill="none" stroke="rgb(179,179,179)" stroke-linejoin="round" d="M 8990,7311 L 8990,7161"/>
 <path fill="none" stroke="rgb(179,179,179)" stroke-linejoin="round" d="M 9522,7311 L 9522,7161"/>
 <path fill="none" stroke="rgb(179,179,179)" stroke-linejoin="round" d="M 9522,7311 L 9522,7161"/>
 <path fill="none" stroke="rgb(179,179,179)" stroke-linejoin="round" d="M 10054,7311 L 10054,7161"/>
 <path fill="none" stroke="rgb(179,179,179)" stroke-linejoin="round" d="M 10054,7311 L 10054,7161"/>
 <path fill="none" stroke="rgb(179,179,179)" stroke-linejoin="round" d="M 10586,7311 L 10586,7161"/>
 <path fill="none" stroke="rgb(179,179,179)" stroke-linejoin="round" d="M 10586,7311 L 10586,7161"/>
 <path fill="none" stroke="rgb(179,179,179)" stroke-linejoin="round" d="M 11118,7311 L 11118,7161"/>
 <path fill="none" stroke="rgb(179,179,179)" stroke-linejoin="round" d="M 11118,7311 L 11118,7161"/>
 <path fill="none" stroke="rgb(179,179,179)" stroke-linejoin="round" d="M 11650,7311 L 11650,7161"/>
 <path fill="none" stroke="rgb(179,179,179)" stroke-linejoin="round" d="M 11650,7311 L 11650,7161"/>
 <path fill="none" stroke="rgb(179,179,179)" stroke-linejoin="round" d="M 12182,7311 L 12182,7161"/>
 <path fill="none" stroke="rgb(179,179,179)" stroke-linejoin="round" d="M 12182,7311 L 12182,7161"/>
 <path fill="none" stroke="rgb(179,179,179)" stroke-linejoin="round" d="M 12714,7311 L 12714,7161"/>
 <path fill="none" stroke="rgb(179,179,179)" stroke-linejoin="round" d="M 12714,7311 L 12714,7161"/>
 <path fill="none" stroke="rgb(179,179,179)" stroke-linejoin="round" d="M 13246,7311 L 13246,7161"/>
 <path fill="none" stroke="rgb(179,179,179)" stroke-linejoin="round" d="M 13246,7311 L 13246,7161"/>
 <path fill="none" stroke="rgb(179,179,179)" stroke-linejoin="round" d="M 13778,7311 L 13778,7161"/>
 <path fill="none" stroke="rgb(179,179,179)" stroke-linejoin="round" d="M 13778,7311 L 13778,7161"/>
 <path fill="none" stroke="rgb(179,179,179)" stroke-linejoin="round" d="M 14310,7311 L 14310,7161"/>
 <path fill="none" stroke="rgb(179,179,179)" stroke-linejoin="round" d="M 14310,7311 L 14310,7161"/>
 <path fill="none" stroke="rgb(179,179,179)" stroke-linejoin="round" d="M 14842,7311 L 14842,7161"/>
 <path fill="none" stroke="rgb(179,179,179)" stroke-linejoin="round" d="M 14842,7311 L 14842,7161"/>
 <path fill="none" stroke="rgb(179,179,179)" stroke-linejoin="round" d="M 15375,7311 L 15375,7161"/>
 <path fill="none" stroke="rgb(179,179,179)" stroke-linejoin="round" d="M 15375,7311 L 15375,7161"/>
 <path fill="none" stroke="rgb(179,179,179)" stroke-linejoin="round" d="M 2074,7161 L 15375,7161"/>
 <path fill="none" stroke="rgb(179,179,179)" stroke-linejoin="round" d="M 1924,7161 L 2074,7161"/>
 <path fill="none" stroke="rgb(179,179,179)" stroke-linejoin="round" d="M 1924,7161 L 2074,7161"/>
 <path fill="none" stroke="rgb(179,179,179)" stroke-linejoin="round" d="M 1924,6284 L 2074,6284"/>
 <path fill="none" stroke="rgb(179,179,179)" stroke-linejoin="round" d="M 1924,6284 L 2074,6284"/>
 <path fill="none" stroke="rgb(179,179,179)" stroke-linejoin="round" d="M 1924,5407 L 2074,5407"/>
 <path fill="none" stroke="rgb(179,179,179)" stroke-linejoin="round" d="M 1924,5407 L 2074,5407"/>
 <path fill="none" stroke="rgb(179,179,179)" stroke-linejoin="round" d="M 1924,4530 L 2074,4530"/>
 <path fill="none" stroke="rgb(179,179,179)" stroke-linejoin="round" d="M 1924,4530 L 2074,4530"/>
 <path fill="none" stroke="rgb(179,179,179)" stroke-linejoin="round" d="M 1924,3654 L 2074,3654"/>
 <path fill="none" stroke="rgb(179,179,179)" stroke-linejoin="round" d="M 1924,3654 L 2074,3654"/>
 <path fill="none" stroke="rgb(179,179,179)" stroke-linejoin="round" d="M 1924,2777 L 2074,2777"/>
 <path fill="none" stroke="rgb(179,179,179)" stroke-linejoin="round" d="M 1924,2777 L 2074,2777"/>
 <path fill="none" stroke="rgb(179,179,179)" stroke-linejoin="round" d="M 1924,1900 L 2074,1900"/>
 <path fill="none" stroke="rgb(179,179,179)" stroke-linejoin="round" d="M 1924,1900 L 2074,1900"/>
 <path fill="none" stroke="rgb(179,179,179)" stroke-linejoin="round" d="M 1924,1024 L 2074,1024"/>
 <path fill="none" stroke="rgb(179,179,179)" stroke-linejoin="round" d="M 1924,1024 L 2074,1024"/>
 <path fill="none" stroke="rgb(179,179,179)" stroke-linejoin="round" d="M 2074,7161 L 2074,1024"/>
 <path fill="rgb(255,66,14)" stroke="none" d="M 14975,7161 L 15241,7161 15241,1900 14975,1900 14975,7161 Z"/>
 <path fill="rgb(255,66,14)" stroke="none" d="M 14443,7161 L 14709,7161 14709,3654 14443,3654 14443,7161 Z"/>
 <path fill="rgb(255,66,14)" stroke="none" d="M 13911,7161 L 14177,7161 14177,5407 13911,5407 13911,7161 Z"/>
 <path fill="rgb(255,66,14)" stroke="none" d="M 13379,7161 L 13645,7161 13645,5407 13379,5407 13379,7161 Z"/>
 <path fill="rgb(255,66,14)" stroke="none" d="M 12315,7161 L 12581,7161 12581,5407 12315,5407 12315,7161 Z"/>
 <path fill="rgb(255,66,14)" stroke="none" d="M 11783,7161 L 12049,7161 12049,5407 11783,5407 11783,7161 Z"/>
 <path fill="rgb(255,66,14)" stroke="none" d="M 11251,7161 L 11517,7161 11517,5407 11251,5407 11251,7161 Z"/>
 <path fill="rgb(255,66,14)" stroke="none" d="M 10187,7161 L 10453,7161 10453,5407 10187,5407 10187,7161 Z"/>
 <path fill="rgb(255,66,14)" stroke="none" d="M 9123,7161 L 9389,7161 9389,5407 9123,5407 9123,7161 Z"/>
 <path fill="rgb(255,66,14)" stroke="none" d="M 8590,7161 L 8857,7161 8857,5407 8590,5407 8590,7161 Z"/>
 <path fill="rgb(255,66,14)" stroke="none" d="M 6995,7161 L 7261,7161 7261,3654 6995,3654 6995,7161 Z"/>
 <path fill="rgb(255,66,14)" stroke="none" d="M 5931,7161 L 6197,7161 6197,5407 5931,5407 5931,7161 Z"/>
 <text class="TextShape"><tspan class="TextParagraph" font-family="Arial" font-size="353px" font-weight="400"><tspan class="TextPosition" x="2247" y="7729"><tspan fill="rgb(0,0,0)" stroke="none">0</tspan></tspan></tspan></text>
 <text class="TextShape"><tspan class="TextParagraph" font-family="Arial" font-size="353px" font-weight="400"><tspan class="TextPosition" x="2779" y="7729"><tspan fill="rgb(0,0,0)" stroke="none">1</tspan></tspan></tspan></text>
 <text class="TextShape"><tspan class="TextParagraph" font-family="Arial" font-size="353px" font-weight="400"><tspan class="TextPosition" x="3311" y="7729"><tspan fill="rgb(0,0,0)" stroke="none">2</tspan></tspan></tspan></text>
 <text class="TextShape"><tspan class="TextParagraph" font-family="Arial" font-size="353px" font-weight="400"><tspan class="TextPosition" x="3843" y="7729"><tspan fill="rgb(0,0,0)" stroke="none">3</tspan></tspan></tspan></text>
 <text class="TextShape"><tspan class="TextParagraph" font-family="Arial" font-size="353px" font-weight="400"><tspan class="TextPosition" x="4375" y="7729"><tspan fill="rgb(0,0,0)" stroke="none">4</tspan></tspan></tspan></text>
 <text class="TextShape"><tspan class="TextParagraph" font-family="Arial" font-size="353px" font-weight="400"><tspan class="TextPosition" x="4907" y="7729"><tspan fill="rgb(0,0,0)" stroke="none">5</tspan></tspan></tspan></text>
 <text class="TextShape"><tspan class="TextParagraph" font-family="Arial" font-size="353px" font-weight="400"><tspan class="TextPosition" x="5439" y="7729"><tspan fill="rgb(0,0,0)" stroke="none">6</tspan></tspan></tspan></text>
 <text class="TextShape"><tspan class="TextParagraph" font-family="Arial" font-size="353px" font-weight="400"><tspan class="TextPosition" x="5971" y="7729"><tspan fill="rgb(0,0,0)" stroke="none">7</tspan></tspan></tspan></text>
 <text class="TextShape"><tspan class="TextParagraph" font-family="Arial" font-size="353px" font-weight="400"><tspan class="TextPosition" x="6503" y="7729"><tspan fill="rgb(0,0,0)" stroke="none">8</tspan></tspan></tspan></text>
 <text class="TextShape"><tspan class="TextParagraph" font-family="Arial" font-size="353px" font-weight="400"><tspan class="TextPosition" x="7035" y="7729"><tspan fill="rgb(0,0,0)" stroke="none">9</tspan></tspan></tspan></text>
 <text class="TextShape"><tspan class="TextParagraph" font-family="Arial" font-size="353px" font-weight="400"><tspan class="TextPosition" x="7475" y="7729"><tspan fill="rgb(0,0,0)" stroke="none">10</tspan></tspan></tspan></text>
 <text class="TextShape"><tspan class="TextParagraph" font-family="Arial" font-size="353px" font-weight="400"><tspan class="TextPosition" x="8007" y="7729"><tspan fill="rgb(0,0,0)" stroke="none">11</tspan></tspan></tspan></text>
 <text class="TextShape"><tspan class="TextParagraph" font-family="Arial" font-size="353px" font-weight="400"><tspan class="TextPosition" x="8540" y="7729"><tspan fill="rgb(0,0,0)" stroke="none">12</tspan></tspan></tspan></text>
 <text class="TextShape"><tspan class="TextParagraph" font-family="Arial" font-size="353px" font-weight="400"><tspan class="TextPosition" x="9072" y="7729"><tspan fill="rgb(0,0,0)" stroke="none">13</tspan></tspan></tspan></text>
 <text class="TextShape"><tspan class="TextParagraph" font-family="Arial" font-size="353px" font-weight="400"><tspan class="TextPosition" x="9604" y="7729"><tspan fill="rgb(0,0,0)" stroke="none">14</tspan></tspan></tspan></text>
 <text class="TextShape"><tspan class="TextParagraph" font-family="Arial" font-size="353px" font-weight="400"><tspan class="TextPosition" x="10136" y="7729"><tspan fill="rgb(0,0,0)" stroke="none">15</tspan></tspan></tspan></text>
 <text class="TextShape"><tspan class="TextParagraph" font-family="Arial" font-size="353px" font-weight="400"><tspan class="TextPosition" x="10668" y="7729"><tspan fill="rgb(0,0,0)" stroke="none">16</tspan></tspan></tspan></text>
 <text class="TextShape"><tspan class="TextParagraph" font-family="Arial" font-size="353px" font-weight="400"><tspan class="TextPosition" x="11200" y="7729"><tspan fill="rgb(0,0,0)" stroke="none">17</tspan></tspan></tspan></text>
 <text class="TextShape"><tspan class="TextParagraph" font-family="Arial" font-size="353px" font-weight="400"><tspan class="TextPosition" x="11732" y="7729"><tspan fill="rgb(0,0,0)" stroke="none">18</tspan></tspan></tspan></text>
 <text class="TextShape"><tspan class="TextParagraph" font-family="Arial" font-size="353px" font-weight="400"><tspan class="TextPosition" x="12264" y="7729"><tspan fill="rgb(0,0,0)" stroke="none">19</tspan></tspan></tspan></text>
 <text class="TextShape"><tspan class="TextParagraph" font-family="Arial" font-size="353px" font-weight="400"><tspan class="TextPosition" x="12796" y="7729"><tspan fill="rgb(0,0,0)" stroke="none">20</tspan></tspan></tspan></text>
 <text class="TextShape"><tspan class="TextParagraph" font-family="Arial" font-size="353px" font-weight="400"><tspan class="TextPosition" x="13328" y="7729"><tspan fill="rgb(0,0,0)" stroke="none">21</tspan></tspan></tspan></text>
 <text class="TextShape"><tspan class="TextParagraph" font-family="Arial" font-size="353px" font-weight="400"><tspan class="TextPosition" x="13860" y="7729"><tspan fill="rgb(0,0,0)" stroke="none">22</tspan></tspan></tspan></text>
 <text class="TextShape"><tspan class="TextParagraph" font-family="Arial" font-size="353px" font-weight="400"><tspan class="TextPosition" x="14392" y="7729"><tspan fill="rgb(0,0,0)" stroke="none">23</tspan></tspan></tspan></text>
 <text class="TextShape"><tspan class="TextParagraph" font-family="Arial" font-size="353px" font-weight="400"><tspan class="TextPosition" x="14924" y="7729"><tspan fill="rgb(0,0,0)" stroke="none">24</tspan></tspan></tspan></text>
 <text class="TextShape"><tspan class="TextParagraph" font-family="Arial" font-size="353px" font-weight="400"><tspan class="TextPosition" x="1639" y="7282"><tspan fill="rgb(0,0,0)" stroke="none">0</tspan></tspan></tspan></text>
 <text class="TextShape"><tspan class="TextParagraph" font-family="Arial" font-size="353px" font-weight="400"><tspan class="TextPosition" x="1348" y="6405"><tspan fill="rgb(0,0,0)" stroke="none">0,5</tspan></tspan></tspan></text>
 <text class="TextShape"><tspan class="TextParagraph" font-family="Arial" font-size="353px" font-weight="400"><tspan class="TextPosition" x="1639" y="5528"><tspan fill="rgb(0,0,0)" stroke="none">1</tspan></tspan></tspan></text>
 <text class="TextShape"><tspan class="TextParagraph" font-family="Arial" font-size="353px" font-weight="400"><tspan class="TextPosition" x="1348" y="4651"><tspan fill="rgb(0,0,0)" stroke="none">1,5</tspan></tspan></tspan></text>
 <text class="TextShape"><tspan class="TextParagraph" font-family="Arial" font-size="353px" font-weight="400"><tspan class="TextPosition" x="1639" y="3774"><tspan fill="rgb(0,0,0)" stroke="none">2</tspan></tspan></tspan></text>
 <text class="TextShape"><tspan class="TextParagraph" font-family="Arial" font-size="353px" font-weight="400"><tspan class="TextPosition" x="1348" y="2897"><tspan fill="rgb(0,0,0)" stroke="none">2,5</tspan></tspan></tspan></text>
 <text class="TextShape"><tspan class="TextParagraph" font-family="Arial" font-size="353px" font-weight="400"><tspan class="TextPosition" x="1639" y="2020"><tspan fill="rgb(0,0,0)" stroke="none">3</tspan></tspan></tspan></text>
 <text class="TextShape"><tspan class="TextParagraph" font-family="Arial" font-size="353px" font-weight="400"><tspan class="TextPosition" x="1348" y="1144"><tspan fill="rgb(0,0,0)" stroke="none">3,5</tspan></tspan></tspan></text>
 <text class="TextShape"><tspan class="TextParagraph" font-family="Arial" font-size="318px" font-weight="400"><tspan class="TextPosition" x="7104" y="8376"><tspan fill="rgb(0,0,0)" stroke="none"># domain marked</tspan></tspan></tspan></text>
 <text class="TextShape"><tspan class="TextParagraph" font-family="Arial" font-size="318px" font-weight="400"><tspan class="TextPosition" x="853" y="4846" transform="translate(853,4846) rotate(-90) translate(-853,-4846)"><tspan fill="rgb(0,0,0)" stroke="none"># users</tspan></tspan></tspan></text>
 <path fill="rgb(255,66,14)" stroke="none" d="M 5399,7161 L 5665,7161 5665,5407 5399,5407 5399,7161 Z"/>
</svg>