<?xml version="1.0" encoding="UTF-8"?>
<!DOCTYPE svg PUBLIC "-//W3C//DTD SVG 1.1//EN" "http://www.w3.org/Graphics/SVG/1.1/DTD/svg11.dtd">
<svg width="160mm" height="90mm" viewBox="0 0 16000 9000">
 <path fill="rgb(255,255,255)" stroke="none" d="M 7904,9038 L -96,9038 -96,39 15903,39 15903,9038 7904,9038 Z"/>
 <path fill="none" stroke="rgb(179,179,179)" stroke-linejoin="round" d="M 6844,8239 L 1798,8239 1798,1093 11889,1093 11889,8239 6844,8239 Z"/>
 <path fill="none" stroke="rgb(179,179,179)" stroke-linejoin="round" d="M 11889,8238 L 1798,8238"/>
 <path fill="none" stroke="rgb(179,179,179)" stroke-linejoin="round" d="M 11889,7523 L 1798,7523"/>
 <path fill="none" stroke="rgb(179,179,179)" stroke-linejoin="round" d="M 11889,6808 L 1798,6808"/>
 <path fill="none" stroke="rgb(179,179,179)" stroke-linejoin="round" d="M 11889,6093 L 1798,6093"/>
 <path fill="none" stroke="rgb(179,179,179)" stroke-linejoin="round" d="M 11889,5379 L 1798,5379"/>
 <path fill="none" stroke="rgb(179,179,179)" stroke-linejoin="round" d="M 11889,4664 L 1798,4664"/>
 <path fill="none" stroke="rgb(179,179,179)" stroke-linejoin="round" d="M 11889,3950 L 1798,3950"/>
 <path fill="none" stroke="rgb(179,179,179)" stroke-linejoin="round" d="M 11889,3236 L 1798,3236"/>
 <path fill="none" stroke="rgb(179,179,179)" stroke-linejoin="round" d="M 11889,2521 L 1798,2521"/>
 <path fill="none" stroke="rgb(179,179,179)" stroke-linejoin="round" d="M 11889,1806 L 1798,1806"/>
 <path fill="none" stroke="rgb(179,179,179)" stroke-linejoin="round" d="M 11889,1092 L 1798,1092"/>
 <path fill="none" stroke="rgb(179,179,179)" stroke-linejoin="round" d="M 1798,8388 L 1798,8238"/>
 <path fill="none" stroke="rgb(179,179,179)" stroke-linejoin="round" d="M 1798,8388 L 1798,8238"/>
 <path fill="none" stroke="rgb(179,179,179)" stroke-linejoin="round" d="M 6844,8388 L 6844,8238"/>
 <path fill="none" stroke="rgb(179,179,179)" stroke-linejoin="round" d="M 6844,8388 L 6844,8238"/>
 <path fill="none" stroke="rgb(179,179,179)" stroke-linejoin="round" d="M 11889,8388 L 11889,8238"/>
 <path fill="none" stroke="rgb(179,179,179)" stroke-linejoin="round" d="M 11889,8388 L 11889,8238"/>
 <path fill="none" stroke="rgb(179,179,179)" stroke-linejoin="round" d="M 1798,8238 L 11889,8238"/>
 <path fill="none" stroke="rgb(179,179,179)" stroke-linejoin="round" d="M 1648,8238 L 1798,8238"/>
 <path fill="none" stroke="rgb(179,179,179)" stroke-linejoin="round" d="M 1648,8238 L 1798,8238"/>
 <path fill="none" stroke="rgb(179,179,179)" stroke-linejoin="round" d="M 1648,7523 L 1798,7523"/>
 <path fill="none" stroke="rgb(179,179,179)" stroke-linejoin="round" d="M 1648,7523 L 1798,7523"/>
 <path fill="none" stroke="rgb(179,179,179)" stroke-linejoin="round" d="M 1648,6808 L 1798,6808"/>
 <path fill="none" stroke="rgb(179,179,179)" stroke-linejoin="round" d="M 1648,6808 L 1798,6808"/>
 <path fill="none" stroke="rgb(179,179,179)" stroke-linejoin="round" d="M 1648,6093 L 1798,6093"/>
 <path fill="none" stroke="rgb(179,179,179)" stroke-linejoin="round" d="M 1648,6093 L 1798,6093"/>
 <path fill="none" stroke="rgb(179,179,179)" stroke-linejoin="round" d="M 1648,5379 L 1798,5379"/>
 <path fill="none" stroke="rgb(179,179,179)" stroke-linejoin="round" d="M 1648,5379 L 1798,5379"/>
 <path fill="none" stroke="rgb(179,179,179)" stroke-linejoin="round" d="M 1648,4664 L 1798,4664"/>
 <path fill="none" stroke="rgb(179,179,179)" stroke-linejoin="round" d="M 1648,4664 L 1798,4664"/>
 <path fill="none" stroke="rgb(179,179,179)" stroke-linejoin="round" d="M 1648,3950 L 1798,3950"/>
 <path fill="none" stroke="rgb(179,179,179)" stroke-linejoin="round" d="M 1648,3950 L 1798,3950"/>
 <path fill="none" stroke="rgb(179,179,179)" stroke-linejoin="round" d="M 1648,3236 L 1798,3236"/>
 <path fill="none" stroke="rgb(179,179,179)" stroke-linejoin="round" d="M 1648,3236 L 1798,3236"/>
 <path fill="none" stroke="rgb(179,179,179)" stroke-linejoin="round" d="M 1648,2521 L 1798,2521"/>
 <path fill="none" stroke="rgb(179,179,179)" stroke-linejoin="round" d="M 1648,2521 L 1798,2521"/>
 <path fill="none" stroke="rgb(179,179,179)" stroke-linejoin="round" d="M 1648,1806 L 1798,1806"/>
 <path fill="none" stroke="rgb(179,179,179)" stroke-linejoin="round" d="M 1648,1806 L 1798,1806"/>
 <path fill="none" stroke="rgb(179,179,179)" stroke-linejoin="round" d="M 1648,1092 L 1798,1092"/>
 <path fill="none" stroke="rgb(179,179,179)" stroke-linejoin="round" d="M 1648,1092 L 1798,1092"/>
 <path fill="none" stroke="rgb(179,179,179)" stroke-linejoin="round" d="M 1798,8238 L 1798,1092"/>
 <path fill="rgb(0,69,134)" stroke="none" d="M 8104,8238 L 10627,8238 10627,8220 8104,8220 8104,8238 Z"/>
 <path fill="rgb(0,69,134)" stroke="none" d="M 3059,8238 L 5582,8238 5582,7446 3059,7446 3059,8238 Z"/>
 <path fill="rgb(255,66,14)" stroke="none" d="M 3059,7446 L 5582,7446 5582,7288 3059,7288 3059,7446 Z"/>
 <path fill="rgb(255,211,32)" stroke="none" d="M 3059,7288 L 5582,7288 5582,7262 3059,7262 3059,7288 Z"/>
 <path fill="rgb(87,157,28)" stroke="none" d="M 8104,8220 L 10627,8220 10627,7659 8104,7659 8104,8220 Z"/>
 <path fill="rgb(87,157,28)" stroke="none" d="M 3059,7262 L 5582,7262 5582,4915 3059,4915 3059,7262 Z"/>
 <path fill="rgb(126,0,33)" stroke="none" d="M 8104,7659 L 10627,7659 10627,3544 8104,3544 8104,7659 Z"/>
 <path fill="rgb(126,0,33)" stroke="none" d="M 3059,4915 L 5582,4915 5582,4151 3059,4151 3059,4915 Z"/>
 <path fill="rgb(131,202,255)" stroke="none" d="M 8104,3544 L 10627,3544 10627,2651 8104,2651 8104,3544 Z"/>
 <path fill="rgb(131,202,255)" stroke="none" d="M 3059,4151 L 5582,4151 5582,3360 3059,3360 3059,4151 Z"/>
 <path fill="rgb(49,64,4)" stroke="none" d="M 8104,2651 L 10627,2651 10627,2598 8104,2598 8104,2651 Z"/>
 <path fill="rgb(49,64,4)" stroke="none" d="M 3059,3360 L 5582,3360 5582,2858 3059,2858 3059,3360 Z"/>
 <path fill="rgb(174,207,0)" stroke="none" d="M 8104,2598 L 10627,2598 10627,1547 8104,1547 8104,2598 Z"/>
 <path fill="rgb(174,207,0)" stroke="none" d="M 3059,2858 L 5582,2858 5582,2437 3059,2437 3059,2858 Z"/>
 <path fill="rgb(75,31,111)" stroke="none" d="M 8104,1547 L 10627,1547 10627,1092 8104,1092 8104,1547 Z"/>
 <text class="TextShape"><tspan class="TextParagraph" font-family="Arial, sans-serif" font-size="353px" font-weight="400"><tspan class="TextPosition" x="1045" y="8359"><tspan fill="rgb(0,0,0)" stroke="none">0%</tspan></tspan></tspan></text>
 <text class="TextShape"><tspan class="TextParagraph" font-family="Arial, sans-serif" font-size="353px" font-weight="400"><tspan class="TextPosition" x="860" y="7644"><tspan fill="rgb(0,0,0)" stroke="none">10%</tspan></tspan></tspan></text>
 <text class="TextShape"><tspan class="TextParagraph" font-family="Arial, sans-serif" font-size="353px" font-weight="400"><tspan class="TextPosition" x="860" y="6929"><tspan fill="rgb(0,0,0)" stroke="none">20%</tspan></tspan></tspan></text>
 <text class="TextShape"><tspan class="TextParagraph" font-family="Arial, sans-serif" font-size="353px" font-weight="400"><tspan class="TextPosition" x="860" y="6214"><tspan fill="rgb(0,0,0)" stroke="none">30%</tspan></tspan></tspan></text>
 <text class="TextShape"><tspan class="TextParagraph" font-family="Arial, sans-serif" font-size="353px" font-weight="400"><tspan class="TextPosition" x="860" y="5500"><tspan fill="rgb(0,0,0)" stroke="none">40%</tspan></tspan></tspan></text>
 <text class="TextShape"><tspan class="TextParagraph" font-family="Arial, sans-serif" font-size="353px" font-weight="400"><tspan class="TextPosition" x="860" y="4785"><tspan fill="rgb(0,0,0)" stroke="none">50%</tspan></tspan></tspan></text>
 <text class="TextShape"><tspan class="TextParagraph" font-family="Arial, sans-serif" font-size="353px" font-weight="400"><tspan class="TextPosition" x="860" y="4070"><tspan fill="rgb(0,0,0)" stroke="none">60%</tspan></tspan></tspan></text>
 <text class="TextShape"><tspan class="TextParagraph" font-family="Arial, sans-serif" font-size="353px" font-weight="400"><tspan class="TextPosition" x="860" y="3356"><tspan fill="rgb(0,0,0)" stroke="none">70%</tspan></tspan></tspan></text>
 <text class="TextShape"><tspan class="TextParagraph" font-family="Arial, sans-serif" font-size="353px" font-weight="400"><tspan class="TextPosition" x="860" y="2641"><tspan fill="rgb(0,0,0)" stroke="none">80%</tspan></tspan></tspan></text>
 <text class="TextShape"><tspan class="TextParagraph" font-family="Arial, sans-serif" font-size="353px" font-weight="400"><tspan class="TextPosition" x="860" y="1926"><tspan fill="rgb(0,0,0)" stroke="none">90%</tspan></tspan></tspan></text>
 <text class="TextShape"><tspan class="TextParagraph" font-family="Arial, sans-serif" font-size="353px" font-weight="400"><tspan class="TextPosition" x="675" y="1212"><tspan fill="rgb(0,0,0)" stroke="none">100%</tspan></tspan></tspan></text>
 <path fill="rgb(75,31,111)" stroke="none" d="M 3059,2437 L 5582,2437 5582,1092 3059,1092 3059,2437 Z"/>
 <path fill="rgb(0,69,134)" stroke="none" d="M 12751,6635 L 12645,6635 12645,6424 12856,6424 12856,6635 12751,6635 Z"/>
 <path fill="rgb(255,66,14)" stroke="none" d="M 12751,6137 L 12645,6137 12645,5926 12856,5926 12856,6137 12751,6137 Z"/>
 <path fill="rgb(255,211,32)" stroke="none" d="M 12751,5639 L 12645,5639 12645,5428 12856,5428 12856,5639 12751,5639 Z"/>
 <path fill="rgb(87,157,28)" stroke="none" d="M 12751,5141 L 12645,5141 12645,4930 12856,4930 12856,5141 12751,5141 Z"/>
 <path fill="rgb(126,0,33)" stroke="none" d="M 12751,4643 L 12645,4643 12645,4433 12856,4433 12856,4643 12751,4643 Z"/>
 <path fill="rgb(131,202,255)" stroke="none" d="M 12751,4146 L 12645,4146 12645,3935 12856,3935 12856,4146 12751,4146 Z"/>
 <path fill="rgb(49,64,4)" stroke="none" d="M 12751,3648 L 12645,3648 12645,3437 12856,3437 12856,3648 12751,3648 Z"/>
 <path fill="rgb(174,207,0)" stroke="none" d="M 12751,3150 L 12645,3150 12645,2939 12856,2939 12856,3150 12751,3150 Z"/>
 <text class="TextShape"><tspan class="TextParagraph" font-family="Arial, sans-serif" font-size="353px" font-weight="400"><tspan class="TextPosition" x="12956" y="2666"><tspan fill="rgb(0,0,0)" stroke="none">scheme</tspan></tspan></tspan></text>
 <text class="TextShape"><tspan class="TextParagraph" font-family="Arial, sans-serif" font-size="353px" font-weight="400"><tspan class="TextPosition" x="12956" y="3164"><tspan fill="rgb(0,0,0)" stroke="none">host</tspan></tspan></tspan></text>
 <text class="TextShape"><tspan class="TextParagraph" font-family="Arial, sans-serif" font-size="353px" font-weight="400"><tspan class="TextPosition" x="12956" y="3662"><tspan fill="rgb(0,0,0)" stroke="none">none</tspan></tspan></tspan></text>
 <text class="TextShape"><tspan class="TextParagraph" font-family="Arial, sans-serif" font-size="353px" font-weight="400"><tspan class="TextPosition" x="12956" y="4160"><tspan fill="rgb(0,0,0)" stroke="none">domain substring</tspan></tspan></tspan></text>
 <text class="TextShape"><tspan class="TextParagraph" font-family="Arial, sans-serif" font-size="353px" font-weight="400"><tspan class="TextPosition" x="12956" y="4657"><tspan fill="rgb(0,0,0)" stroke="none">domain</tspan></tspan></tspan></text>
 <text class="TextShape"><tspan class="TextParagraph" font-family="Arial, sans-serif" font-size="353px" font-weight="400"><tspan class="TextPosition" x="12956" y="5155"><tspan fill="rgb(0,0,0)" stroke="none">url</tspan></tspan></tspan></text>
 <text class="TextShape"><tspan class="TextParagraph" font-family="Arial, sans-serif" font-size="353px" font-weight="400"><tspan class="TextPosition" x="12956" y="5653"><tspan fill="rgb(0,0,0)" stroke="none">favicon</tspan></tspan></tspan></text>
 <text class="TextShape"><tspan class="TextParagraph" font-family="Arial, sans-serif" font-size="353px" font-weight="400"><tspan class="TextPosition" x="12956" y="6151"><tspan fill="rgb(0,0,0)" stroke="none">padlock</tspan></tspan></tspan></text>
 <text class="TextShape"><tspan class="TextParagraph" font-family="Arial, sans-serif" font-size="353px" font-weight="400"><tspan class="TextPosition" x="12956" y="6649"><tspan fill="rgb(0,0,0)" stroke="none">content</tspan></tspan></tspan></text>
 <path fill="rgb(75,31,111)" stroke="none" d="M 12751,2652 L 12645,2652 12645,2441 12856,2441 12856,2652 12751,2652 Z"/>
</svg>