<?xml version="1.0" encoding="UTF-8"?>
<!DOCTYPE svg PUBLIC "-//W3C//DTD SVG 1.1//EN" "http://www.w3.org/Graphics/SVG/1.1/DTD/svg11.dtd">
<svg width="160mm" height="90mm" viewBox="0 0 16000 9000">
 <path fill="rgb(255,255,255)" stroke="none" d="M 7592,8943 L -408,8943 -408,-56 15591,-56 15591,8943 7592,8943 Z"/>
 <path fill="none" stroke="rgb(179,179,179)" stroke-linejoin="round" d="M 8155,7135 L 1359,7135 1359,998 14951,998 14951,7135 8155,7135 Z"/>
 <path fill="none" stroke="rgb(179,179,179)" stroke-linejoin="round" d="M 14951,7134 L 1359,7134"/>
 <path fill="none" stroke="rgb(179,179,179)" stroke-linejoin="round" d="M 14951,6257 L 1359,6257"/>
 <path fill="none" stroke="rgb(179,179,179)" stroke-linejoin="round" d="M 14951,5380 L 1359,5380"/>
 <path fill="none" stroke="rgb(179,179,179)" stroke-linejoin="round" d="M 14951,4503 L 1359,4503"/>
 <path fill="none" stroke="rgb(179,179,179)" stroke-linejoin="round" d="M 14951,3627 L 1359,3627"/>
 <path fill="none" stroke="rgb(179,179,179)" stroke-linejoin="round" d="M 14951,2750 L 1359,2750"/>
 <path fill="none" stroke="rgb(179,179,179)" stroke-linejoin="round" d="M 14951,1873 L 1359,1873"/>
 <path fill="none" stroke="rgb(179,179,179)" stroke-linejoin="round" d="M 14951,997 L 1359,997"/>
 <path fill="none" stroke="rgb(179,179,179)" stroke-linejoin="round" d="M 1359,7284 L 1359,7134"/>
 <path fill="none" stroke="rgb(179,179,179)" stroke-linejoin="round" d="M 1359,7284 L 1359,7134"/>
 <path fill="none" stroke="rgb(179,179,179)" stroke-linejoin="round" d="M 2158,7284 L 2158,7134"/>
 <path fill="none" stroke="rgb(179,179,179)" stroke-linejoin="round" d="M 2158,7284 L 2158,7134"/>
 <path fill="none" stroke="rgb(179,179,179)" stroke-linejoin="round" d="M 2958,7284 L 2958,7134"/>
 <path fill="none" stroke="rgb(179,179,179)" stroke-linejoin="round" d="M 2958,7284 L 2958,7134"/>
 <path fill="none" stroke="rgb(179,179,179)" stroke-linejoin="round" d="M 3757,7284 L 3757,7134"/>
 <path fill="none" stroke="rgb(179,179,179)" stroke-linejoin="round" d="M 3757,7284 L 3757,7134"/>
 <path fill="none" stroke="rgb(179,179,179)" stroke-linejoin="round" d="M 4557,7284 L 4557,7134"/>
 <path fill="none" stroke="rgb(179,179,179)" stroke-linejoin="round" d="M 4557,7284 L 4557,7134"/>
 <path fill="none" stroke="rgb(179,179,179)" stroke-linejoin="round" d="M 5356,7284 L 5356,7134"/>
 <path fill="none" stroke="rgb(179,179,179)" stroke-linejoin="round" d="M 5356,7284 L 5356,7134"/>
 <path fill="none" stroke="rgb(179,179,179)" stroke-linejoin="round" d="M 6156,7284 L 6156,7134"/>
 <path fill="none" stroke="rgb(179,179,179)" stroke-linejoin="round" d="M 6156,7284 L 6156,7134"/>
 <path fill="none" stroke="rgb(179,179,179)" stroke-linejoin="round" d="M 6956,7284 L 6956,7134"/>
 <path fill="none" stroke="rgb(179,179,179)" stroke-linejoin="round" d="M 6956,7284 L 6956,7134"/>
 <path fill="none" stroke="rgb(179,179,179)" stroke-linejoin="round" d="M 7754,7284 L 7754,7134"/>
 <path fill="none" stroke="rgb(179,179,179)" stroke-linejoin="round" d="M 7754,7284 L 7754,7134"/>
 <path fill="none" stroke="rgb(179,179,179)" stroke-linejoin="round" d="M 8554,7284 L 8554,7134"/>
 <path fill="none" stroke="rgb(179,179,179)" stroke-linejoin="round" d="M 8554,7284 L 8554,7134"/>
 <path fill="none" stroke="rgb(179,179,179)" stroke-linejoin="round" d="M 9353,7284 L 9353,7134"/>
 <path fill="none" stroke="rgb(179,179,179)" stroke-linejoin="round" d="M 9353,7284 L 9353,7134"/>
 <path fill="none" stroke="rgb(179,179,179)" stroke-linejoin="round" d="M 10153,7284 L 10153,7134"/>
 <path fill="none" stroke="rgb(179,179,179)" stroke-linejoin="round" d="M 10153,7284 L 10153,7134"/>
 <path fill="none" stroke="rgb(179,179,179)" stroke-linejoin="round" d="M 10953,7284 L 10953,7134"/>
 <path fill="none" stroke="rgb(179,179,179)" stroke-linejoin="round" d="M 10953,7284 L 10953,7134"/>
 <path fill="none" stroke="rgb(179,179,179)" stroke-linejoin="round" d="M 11752,7284 L 11752,7134"/>
 <path fill="none" stroke="rgb(179,179,179)" stroke-linejoin="round" d="M 11752,7284 L 11752,7134"/>
 <path fill="none" stroke="rgb(179,179,179)" stroke-linejoin="round" d="M 12552,7284 L 12552,7134"/>
 <path fill="none" stroke="rgb(179,179,179)" stroke-linejoin="round" d="M 12552,7284 L 12552,7134"/>
 <path fill="none" stroke="rgb(179,179,179)" stroke-linejoin="round" d="M 13351,7284 L 13351,7134"/>
 <path fill="none" stroke="rgb(179,179,179)" stroke-linejoin="round" d="M 13351,7284 L 13351,7134"/>
 <path fill="none" stroke="rgb(179,179,179)" stroke-linejoin="round" d="M 14151,7284 L 14151,7134"/>
 <path fill="none" stroke="rgb(179,179,179)" stroke-linejoin="round" d="M 14151,7284 L 14151,7134"/>
 <path fill="none" stroke="rgb(179,179,179)" stroke-linejoin="round" d="M 14951,7284 L 14951,7134"/>
 <path fill="none" stroke="rgb(179,179,179)" stroke-linejoin="round" d="M 14951,7284 L 14951,7134"/>
 <path fill="none" stroke="rgb(179,179,179)" stroke-linejoin="round" d="M 1359,7134 L 14951,7134"/>
 <path fill="none" stroke="rgb(179,179,179)" stroke-linejoin="round" d="M 1209,7134 L 1359,7134"/>
 <path fill="none" stroke="rgb(179,179,179)" stroke-linejoin="round" d="M 1209,7134 L 1359,7134"/>
 <path fill="none" stroke="rgb(179,179,179)" stroke-linejoin="round" d="M 1209,6257 L 1359,6257"/>
 <path fill="none" stroke="rgb(179,179,179)" stroke-linejoin="round" d="M 1209,6257 L 1359,6257"/>
 <path fill="none" stroke="rgb(179,179,179)" stroke-linejoin="round" d="M 1209,5380 L 1359,5380"/>
 <path fill="none" stroke="rgb(179,179,179)" stroke-linejoin="round" d="M 1209,5380 L 1359,5380"/>
 <path fill="none" stroke="rgb(179,179,179)" stroke-linejoin="round" d="M 1209,4503 L 1359,4503"/>
 <path fill="none" stroke="rgb(179,179,179)" stroke-linejoin="round" d="M 1209,4503 L 1359,4503"/>
 <path fill="none" stroke="rgb(179,179,179)" stroke-linejoin="round" d="M 1209,3627 L 1359,3627"/>
 <path fill="none" stroke="rgb(179,179,179)" stroke-linejoin="round" d="M 1209,3627 L 1359,3627"/>
 <path fill="none" stroke="rgb(179,179,179)" stroke-linejoin="round" d="M 1209,2750 L 1359,2750"/>
 <path fill="none" stroke="rgb(179,179,179)" stroke-linejoin="round" d="M 1209,2750 L 1359,2750"/>
 <path fill="none" stroke="rgb(179,179,179)" stroke-linejoin="round" d="M 1209,1873 L 1359,1873"/>
 <path fill="none" stroke="rgb(179,179,179)" stroke-linejoin="round" d="M 1209,1873 L 1359,1873"/>
 <path fill="none" stroke="rgb(179,179,179)" stroke-linejoin="round" d="M 1209,997 L 1359,997"/>
 <path fill="none" stroke="rgb(179,179,179)" stroke-linejoin="round" d="M 1209,997 L 1359,997"/>
 <path fill="none" stroke="rgb(179,179,179)" stroke-linejoin="round" d="M 1359,7134 L 1359,997"/>
 <path fill="rgb(0,69,134)" stroke="none" d="M 13551,7134 L 13951,7134 13951,6257 13551,6257 13551,7134 Z"/>
 <path fill="rgb(0,69,134)" stroke="none" d="M 11952,7134 L 12352,7134 12352,6257 11952,6257 11952,7134 Z"/>
 <path fill="rgb(0,69,134)" stroke="none" d="M 11152,7134 L 11552,7134 11552,6257 11152,6257 11152,7134 Z"/>
 <path fill="rgb(0,69,134)" stroke="none" d="M 10353,7134 L 10753,7134 10753,5380 10353,5380 10353,7134 Z"/>
 <path fill="rgb(0,69,134)" stroke="none" d="M 9553,7134 L 9953,7134 9953,4503 9553,4503 9553,7134 Z"/>
 <path fill="rgb(0,69,134)" stroke="none" d="M 8754,7134 L 9153,7134 9153,5380 8754,5380 8754,7134 Z"/>
 <path fill="rgb(0,69,134)" stroke="none" d="M 7954,7134 L 8354,7134 8354,1873 7954,1873 7954,7134 Z"/>
 <path fill="rgb(0,69,134)" stroke="none" d="M 7156,7134 L 7555,7134 7555,6257 7156,6257 7156,7134 Z"/>
 <path fill="rgb(0,69,134)" stroke="none" d="M 6356,7134 L 6756,7134 6756,6257 6356,6257 6356,7134 Z"/>
 <text class="TextShape"><tspan class="TextParagraph" font-family="Arial, sans-serif" font-size="353px" font-weight="400"><tspan class="TextPosition" x="1665" y="7702"><tspan fill="rgb(0,0,0)" stroke="none">0</tspan></tspan></tspan></text>
 <text class="TextShape"><tspan class="TextParagraph" font-family="Arial, sans-serif" font-size="353px" font-weight="400"><tspan class="TextPosition" x="2465" y="7702"><tspan fill="rgb(0,0,0)" stroke="none">1</tspan></tspan></tspan></text>
 <text class="TextShape"><tspan class="TextParagraph" font-family="Arial, sans-serif" font-size="353px" font-weight="400"><tspan class="TextPosition" x="3264" y="7702"><tspan fill="rgb(0,0,0)" stroke="none">2</tspan></tspan></tspan></text>
 <text class="TextShape"><tspan class="TextParagraph" font-family="Arial, sans-serif" font-size="353px" font-weight="400"><tspan class="TextPosition" x="4064" y="7702"><tspan fill="rgb(0,0,0)" stroke="none">3</tspan></tspan></tspan></text>
 <text class="TextShape"><tspan class="TextParagraph" font-family="Arial, sans-serif" font-size="353px" font-weight="400"><tspan class="TextPosition" x="4864" y="7702"><tspan fill="rgb(0,0,0)" stroke="none">4</tspan></tspan></tspan></text>
 <text class="TextShape"><tspan class="TextParagraph" font-family="Arial, sans-serif" font-size="353px" font-weight="400"><tspan class="TextPosition" x="5663" y="7702"><tspan fill="rgb(0,0,0)" stroke="none">5</tspan></tspan></tspan></text>
 <text class="TextShape"><tspan class="TextParagraph" font-family="Arial, sans-serif" font-size="353px" font-weight="400"><tspan class="TextPosition" x="6463" y="7702"><tspan fill="rgb(0,0,0)" stroke="none">6</tspan></tspan></tspan></text>
 <text class="TextShape"><tspan class="TextParagraph" font-family="Arial, sans-serif" font-size="353px" font-weight="400"><tspan class="TextPosition" x="7262" y="7702"><tspan fill="rgb(0,0,0)" stroke="none">7</tspan></tspan></tspan></text>
 <text class="TextShape"><tspan class="TextParagraph" font-family="Arial, sans-serif" font-size="353px" font-weight="400"><tspan class="TextPosition" x="8062" y="7702"><tspan fill="rgb(0,0,0)" stroke="none">8</tspan></tspan></tspan></text>
 <text class="TextShape"><tspan class="TextParagraph" font-family="Arial, sans-serif" font-size="353px" font-weight="400"><tspan class="TextPosition" x="8862" y="7702"><tspan fill="rgb(0,0,0)" stroke="none">9</tspan></tspan></tspan></text>
 <text class="TextShape"><tspan class="TextParagraph" font-family="Arial, sans-serif" font-size="353px" font-weight="400"><tspan class="TextPosition" x="9569" y="7702"><tspan fill="rgb(0,0,0)" stroke="none">10</tspan></tspan></tspan></text>
 <text class="TextShape"><tspan class="TextParagraph" font-family="Arial, sans-serif" font-size="353px" font-weight="400"><tspan class="TextPosition" x="10369" y="7702"><tspan fill="rgb(0,0,0)" stroke="none">11</tspan></tspan></tspan></text>
 <text class="TextShape"><tspan class="TextParagraph" font-family="Arial, sans-serif" font-size="353px" font-weight="400"><tspan class="TextPosition" x="11168" y="7702"><tspan fill="rgb(0,0,0)" stroke="none">12</tspan></tspan></tspan></text>
 <text class="TextShape"><tspan class="TextParagraph" font-family="Arial, sans-serif" font-size="353px" font-weight="400"><tspan class="TextPosition" x="11968" y="7702"><tspan fill="rgb(0,0,0)" stroke="none">13</tspan></tspan></tspan></text>
 <text class="TextShape"><tspan class="TextParagraph" font-family="Arial, sans-serif" font-size="353px" font-weight="400"><tspan class="TextPosition" x="12768" y="7702"><tspan fill="rgb(0,0,0)" stroke="none">14</tspan></tspan></tspan></text>
 <text class="TextShape"><tspan class="TextParagraph" font-family="Arial, sans-serif" font-size="353px" font-weight="400"><tspan class="TextPosition" x="13567" y="7702"><tspan fill="rgb(0,0,0)" stroke="none">15</tspan></tspan></tspan></text>
 <text class="TextShape"><tspan class="TextParagraph" font-family="Arial, sans-serif" font-size="353px" font-weight="400"><tspan class="TextPosition" x="14367" y="7702"><tspan fill="rgb(0,0,0)" stroke="none">16</tspan></tspan></tspan></text>
 <text class="TextShape"><tspan class="TextParagraph" font-family="Arial, sans-serif" font-size="353px" font-weight="400"><tspan class="TextPosition" x="924" y="7255"><tspan fill="rgb(0,0,0)" stroke="none">0</tspan></tspan></tspan></text>
 <text class="TextShape"><tspan class="TextParagraph" font-family="Arial, sans-serif" font-size="353px" font-weight="400"><tspan class="TextPosition" x="924" y="6378"><tspan fill="rgb(0,0,0)" stroke="none">1</tspan></tspan></tspan></text>
 <text class="TextShape"><tspan class="TextParagraph" font-family="Arial, sans-serif" font-size="353px" font-weight="400"><tspan class="TextPosition" x="924" y="5501"><tspan fill="rgb(0,0,0)" stroke="none">2</tspan></tspan></tspan></text>
 <text class="TextShape"><tspan class="TextParagraph" font-family="Arial, sans-serif" font-size="353px" font-weight="400"><tspan class="TextPosition" x="924" y="4624"><tspan fill="rgb(0,0,0)" stroke="none">3</tspan></tspan></tspan></text>
 <text class="TextShape"><tspan class="TextParagraph" font-family="Arial, sans-serif" font-size="353px" font-weight="400"><tspan class="TextPosition" x="924" y="3747"><tspan fill="rgb(0,0,0)" stroke="none">4</tspan></tspan></tspan></text>
 <text class="TextShape"><tspan class="TextParagraph" font-family="Arial, sans-serif" font-size="353px" font-weight="400"><tspan class="TextPosition" x="924" y="2870"><tspan fill="rgb(0,0,0)" stroke="none">5</tspan></tspan></tspan></text>
 <text class="TextShape"><tspan class="TextParagraph" font-family="Arial, sans-serif" font-size="353px" font-weight="400"><tspan class="TextPosition" x="924" y="1993"><tspan fill="rgb(0,0,0)" stroke="none">6</tspan></tspan></tspan></text>
 <text class="TextShape"><tspan class="TextParagraph" font-family="Arial, sans-serif" font-size="353px" font-weight="400"><tspan class="TextPosition" x="924" y="1117"><tspan fill="rgb(0,0,0)" stroke="none">7</tspan></tspan></tspan></text>
 <text class="TextShape"><tspan class="TextParagraph" font-family="Arial, sans-serif" font-size="318px" font-weight="400"><tspan class="TextPosition" x="6667" y="8349"><tspan fill="rgb(0,0,0)" stroke="none"># correct answers</tspan></tspan></tspan></text>
 <text class="TextShape"><tspan class="TextParagraph" font-family="Arial, sans-serif" font-size="318px" font-weight="400"><tspan class="TextPosition" x="429" y="4819" transform="translate(429,4819) rotate(-90) translate(-429,-4819)"><tspan fill="rgb(0,0,0)" stroke="none"># users</tspan></tspan></tspan></text>
 <path fill="rgb(0,69,134)" stroke="none" d="M 4757,7134 L 5157,7134 5157,6257 4757,6257 4757,7134 Z"/>
</svg>